<?xml version="1.0" encoding="UTF-8" standalone="no"?>
<svg
   xmlns:dc="http://purl.org/dc/elements/1.1/"
   xmlns:cc="http://creativecommons.org/ns#"
   xmlns:rdf="http://www.w3.org/1999/02/22-rdf-syntax-ns#"
   xmlns:svg="http://www.w3.org/2000/svg"
   xmlns="http://www.w3.org/2000/svg"
   width="1200"
   height="1600"
   viewBox="0 0 317.49999 423.33335"
   version="1.1"
   id="svg8">
  <defs
     id="defs2" />
  <metadata
     id="metadata5">
    <rdf:RDF>
      <cc:Work
         rdf:about="">
        <dc:format>image/svg+xml</dc:format>
        <dc:type
           rdf:resource="http://purl.org/dc/dcmitype/StillImage" />
        <dc:title></dc:title>
      </cc:Work>
    </rdf:RDF>
  </metadata>
  <path
     id="rect24"
     style="fill:#d4dcf3;fill-opacity:1;stroke-width:2"
     d="M 0,0 H 317.5 V 282.31043 H 0 Z" />
  <path
     transform="scale(0.26458333)"
     d="M 237.32031 133.70117 C 226.24891 133.70117 217.23653 137.04612 210.77539 143.78516 C 204.31438 150.52406 201.14258 159.84641 201.14258 171.3418 L 201.14258 243.70508 C 201.14258 256.88527 203.99776 267.16086 210.00781 274.28906 L 210.01562 274.29688 L 210.01562 274.30469 C 216.09463 281.4318 225.13214 284.96289 236.53711 284.96289 C 247.69132 284.96289 256.65386 281.38572 262.84766 274.22266 C 269.10796 267.05808 272.13281 256.97465 272.13281 244.28906 L 272.13281 227.54688 L 245.76562 227.54688 L 245.76562 248.78516 C 245.76562 253.41019 244.84679 256.63987 243.34375 258.60938 C 241.83911 260.58097 239.80361 261.5332 236.53711 261.5332 C 233.27061 261.5332 231.23706 260.58097 229.73242 258.60938 C 228.22938 256.63987 227.31055 253.41019 227.31055 248.78516 L 227.31055 169.97461 C 227.31055 165.34957 228.23351 162.16786 229.7168 160.27539 L 229.72461 160.26172 L 229.73242 160.25391 C 231.23706 158.28231 233.27256 157.33008 236.53906 157.33008 C 239.80556 157.33008 241.83911 158.28231 243.34375 160.25391 L 243.35156 160.26172 L 243.35938 160.27539 C 244.84265 162.16786 245.76562 165.34957 245.76562 169.97461 L 245.76562 187.5 L 272.13477 187.5 L 272.13477 171.93164 C 272.13477 160.38515 269.03309 150.98671 262.72266 144.11719 C 256.48102 137.18766 247.83758 133.70117 237.32031 133.70117 z M 321.52539 133.70117 C 310.45399 133.70117 301.44161 137.04612 294.98047 143.78516 C 288.51946 150.52406 285.33984 159.84641 285.33984 171.3418 L 285.33984 243.70508 C 285.33984 256.82502 288.23893 267.11095 294.30859 274.29688 L 294.31641 274.30469 L 294.32422 274.31055 C 300.46214 281.42496 309.46455 284.96289 320.74414 284.96289 C 331.89835 284.96289 340.85894 281.38572 347.05273 274.22266 C 353.31304 267.05808 356.33984 256.97465 356.33984 244.28906 L 356.33984 171.93164 C 356.33984 160.38515 353.23817 150.98671 346.92773 144.11719 C 340.68663 137.18765 332.04266 133.70117 321.52539 133.70117 z M 730.06055 133.70117 C 718.40913 133.70117 709.20278 137.80801 703.16211 145.93164 L 703.1543 145.93945 C 697.18011 154.06713 694.36914 165.8913 694.36914 181.30664 C 694.36914 195.97299 696.675 207.22959 701.61133 215.08594 L 701.61914 215.09375 L 701.61914 215.10156 C 706.6255 222.88924 714.35989 226.95703 724.00781 226.95703 C 727.46449 226.95703 730.73526 226.2437 733.73828 224.81641 L 733.75195 224.80859 C 735.60184 223.94668 737.27331 222.2937 739.00195 220.89648 L 739.00195 251.71484 C 739.00195 254.60379 738.1559 256.66718 736.38867 258.38086 L 736.37305 258.39648 L 736.36523 258.4043 C 734.64283 260.12671 732.62385 260.94336 729.86914 260.94336 C 726.89465 260.94336 724.77667 260.12672 723.08594 258.5 C 721.45919 256.80926 720.63477 254.68931 720.63477 251.71484 L 720.63477 240.33984 L 695.24805 240.33984 L 695.24805 246.73242 C 695.24805 258.20832 698.2411 267.58273 704.34375 274.51758 L 704.34375 274.52539 L 704.34961 274.52539 C 710.51485 281.45263 718.97354 284.96289 729.18359 284.96289 C 740.00442 284.96289 748.80317 281.59791 755.06445 274.84961 C 761.32241 268.10494 764.38672 258.80792 764.38672 247.32422 L 764.38672 174.95898 C 764.38672 161.90944 761.55527 151.6724 755.625 144.48633 C 749.69658 137.30248 740.96879 133.70117 730.06055 133.70117 z M 363.68359 136.72656 L 364.11133 139.07422 L 389.69727 281.93555 L 415.79883 281.93555 L 441.51172 136.72656 L 416.01367 136.72656 L 403.16211 222.0332 L 403.16211 222.04688 C 403.01244 223.12819 402.90453 224.59502 402.76367 225.75391 C 402.58603 224.47112 402.53687 223.32672 402.32812 222.00977 L 402.32812 222.00195 L 389.07812 136.72656 L 363.68359 136.72656 z M 451.30664 136.72656 L 451.30664 281.93555 L 453.30664 281.93555 L 477.47461 281.93555 L 477.47461 136.72656 L 451.30664 136.72656 z M 496.44727 136.72656 L 496.44727 281.93555 L 498.44727 281.93555 L 530.38086 281.93555 C 542.64467 281.93555 552.01824 278.67449 557.96094 271.88281 C 563.90787 265.08632 566.65625 254.58637 566.65625 240.58398 L 566.65625 177.49805 C 566.65625 163.99425 563.7109 153.68274 557.45117 146.85547 C 551.25588 140.02661 541.73685 136.72656 529.40625 136.72656 L 496.44727 136.72656 z M 659.43945 136.72656 L 658.8418 137.61328 C 656.37274 141.31686 653.26243 144.52812 649.47266 147.26172 C 645.68806 149.99159 641.08353 152.32125 635.63281 154.22266 L 634.28906 154.6875 L 634.28906 172.36719 L 636.28906 172.36719 L 651.47461 172.36719 L 651.47461 281.93555 L 677.05859 281.93555 L 677.05859 136.72656 L 659.43945 136.72656 z M 854.88867 136.72656 L 854.88867 161.13867 L 856.89062 161.13867 L 877.44922 161.13867 L 877.44922 281.93555 L 903.22656 281.93555 L 903.22656 161.13867 L 925.88086 161.13867 L 925.88086 136.72656 L 854.88867 136.72656 z M 931.27734 136.72656 L 931.27734 281.93555 L 933.27734 281.93555 L 954.90625 281.93555 L 954.90625 201.76953 C 956.50091 199.85736 958.15672 198.21709 959.9043 197.01562 L 959.9043 197.00781 L 959.91211 197.00781 C 961.88952 195.62963 963.40532 195.11719 964.14062 195.11719 C 965.71597 195.11719 966.20113 195.45273 966.4668 195.86328 L 966.49023 195.90039 L 966.51172 195.9375 C 966.76041 196.28956 967.31641 198.23097 967.31641 201.32617 L 967.31641 281.9375 L 990.75391 281.9375 L 990.75391 192.72656 C 990.75391 186.35854 989.59764 181.33584 986.9375 177.76367 C 984.27739 174.1915 980.07914 172.36719 975.07422 172.36719 C 971.08137 172.36719 967.02137 173.6073 962.94727 175.95508 C 960.14883 177.54785 957.54393 180.27646 954.9082 182.84961 L 954.9082 136.72656 L 931.27734 136.72656 z M 137.05273 137.70117 L 137.05273 139.70312 L 137.05273 196.09961 L 157.07227 196.09961 L 157.07227 137.70117 L 137.05273 137.70117 z M 167.22852 137.70117 L 167.22852 139.70312 L 167.22852 196.09961 L 187.24219 196.09961 L 187.24219 137.70117 L 167.22852 137.70117 z M 320.74219 157.33008 L 320.74414 157.33008 C 324.00945 157.33047 326.0445 158.28272 327.54883 160.25391 L 327.55664 160.26172 L 327.56445 160.27539 C 329.04773 162.16786 329.9707 165.34957 329.9707 169.97461 L 329.9707 248.78516 C 329.9707 253.41019 329.05187 256.63987 327.54883 258.60938 C 326.04419 260.58097 324.01064 261.5332 320.74414 261.5332 C 317.47765 261.5332 315.43432 260.58097 313.92969 258.60938 C 312.42664 256.63987 311.50781 253.41019 311.50781 248.78516 L 311.50781 169.97461 C 311.50781 165.34957 312.43273 162.16786 313.91602 160.27539 L 313.92188 160.26172 L 313.92969 160.25391 C 315.43401 158.28272 317.47688 157.33047 320.74219 157.33008 z M 729.375 157.91406 C 732.51934 157.91406 734.67554 158.83736 736.38086 160.75586 L 736.38867 160.76953 L 736.39648 160.77734 C 738.08299 162.62195 739.00195 165.21193 739.00195 168.9043 L 739.00195 197.50977 C 737.83491 199.9725 736.47768 201.80323 734.93359 202.93555 C 733.31376 204.12343 731.53799 204.69336 729.375 204.69336 C 726.22915 204.69336 724.37083 203.71704 722.95312 201.51172 C 721.53108 199.29966 720.63477 195.48146 720.63477 190.0918 L 720.63477 170.36719 C 720.63477 165.94941 721.51575 162.81913 722.97461 160.83008 C 724.50437 158.83302 726.40939 157.91406 729.375 157.91406 z M 522.0332 161.52344 L 525.00781 161.52344 C 530.69305 161.52344 534.50746 162.82241 536.79688 165.05859 L 536.80469 165.06641 L 536.81055 165.07422 C 539.08696 167.24474 540.39062 170.85204 540.39062 176.32422 L 540.39062 244.28906 C 540.39062 249.11933 539.45147 252.41921 537.98438 254.29102 L 537.97656 254.29883 L 537.9707 254.31445 C 536.55569 256.1843 534.49144 257.13477 531.06836 257.13477 L 522.0332 257.13477 L 522.0332 161.52344 z M 1035.5527 171.09766 C 1026.4566 171.09766 1018.7518 174.1973 1012.9199 180.30273 C 1007.0815 186.34969 1004.1582 194.30936 1004.1582 203.76172 L 1004.1582 250.54102 C 1004.1582 260.89607 1006.7393 269.31843 1012.0645 275.48438 L 1012.0723 275.49219 C 1017.4611 281.65083 1024.984 284.77148 1034.084 284.77148 C 1044.089 284.77148 1051.9915 281.89478 1057.25 276.00195 L 1057.2559 275.99414 C 1062.5735 270.10451 1065.0898 261.51852 1065.0898 250.54102 L 1065.0898 240.73047 L 1041.1641 240.73047 L 1041.1641 249.95898 C 1041.1641 255.93693 1040.2708 259.7455 1039.584 260.70703 L 1039.584 260.71289 L 1039.5762 260.7207 C 1038.8048 261.81678 1037.395 262.50781 1034.5723 262.50781 C 1031.9824 262.50781 1030.6876 261.80519 1029.7598 260.33789 C 1028.894 258.81414 1028.1719 255.2543 1028.1719 249.95898 L 1028.1719 232.33008 L 1065.0879 232.33008 L 1065.0879 203.76172 C 1065.0879 193.54571 1062.6183 185.41138 1057.4492 179.67578 C 1052.2831 173.94352 1044.806 171.09766 1035.5547 171.09766 L 1035.5527 171.09766 z M 1034.7715 193.36133 C 1037.2716 193.36133 1038.5686 194.02112 1039.4727 195.33203 L 1039.4805 195.34766 L 1039.4961 195.36914 C 1040.4342 196.66455 1041.1641 199.41729 1041.1641 203.57031 L 1041.1641 212.11914 L 1028.1719 212.11914 L 1028.1719 203.57031 C 1028.1719 199.42241 1028.8788 196.66279 1029.7676 195.36133 C 1030.719 194.05516 1032.131 193.36133 1034.7715 193.36133 z M 781.69727 215.92773 L 781.69727 242.0957 L 783.69922 242.0957 L 806.50195 242.0957 L 806.50195 215.92773 L 781.69727 215.92773 z M 579.96484 218.5625 L 579.96484 237.30469 L 581.9668 237.30469 L 630.35352 237.30469 L 630.35352 218.5625 L 579.96484 218.5625 z M 781.69727 255.76758 L 781.69727 281.93555 L 783.69922 281.93555 L 806.50195 281.93555 L 806.50195 255.76758 L 781.69727 255.76758 z M 248.08398 363.69922 C 237.01259 363.69922 228.00606 367.05003 221.54492 373.78906 C 215.08391 380.52797 211.9043 389.85031 211.9043 401.3457 L 211.9043 473.70312 C 211.9043 486.73229 214.51518 496.93125 220.03125 504.12305 C 225.54402 511.31061 233.72144 514.96094 243.88281 514.96094 C 248.98881 514.96094 253.49026 513.84825 257.23633 511.54297 C 260.02622 509.82612 262.14095 506.79227 264.25781 503.77734 L 267.76367 511.93359 L 281.53125 511.93359 L 281.53125 436.74219 L 243.35156 436.74219 L 243.35156 458.71094 L 256.53516 458.71094 L 256.53516 478.78125 C 256.53516 483.4063 255.61632 486.63795 254.11328 488.60742 C 252.60864 490.57901 250.56728 491.53125 247.30078 491.53125 C 244.03428 491.53125 241.99878 490.57901 240.49414 488.60742 C 238.9911 486.63795 238.07422 483.4063 238.07422 478.78125 L 238.07422 399.97266 C 238.07422 395.34761 238.99719 392.16588 240.48047 390.27344 L 240.48828 390.25781 L 240.49414 390.25 C 241.99878 388.27837 244.03429 387.32812 247.30078 387.32812 C 250.56727 387.32812 252.61059 388.27837 254.11523 390.25 L 254.12305 390.25781 L 254.12891 390.27344 C 255.61218 392.16588 256.53711 395.34761 256.53711 399.97266 L 256.53711 416.91406 L 281.53125 416.91406 L 281.53125 401.92969 C 281.53125 389.7169 278.78853 380.16485 273.02734 373.56055 C 267.2705 366.96123 258.76707 363.69922 248.08398 363.69922 z M 592.21875 366.72461 L 592.21875 511.93359 L 617.99609 511.93359 L 617.99609 452.56055 L 624.75195 452.56055 L 638.23047 511.93359 L 664.93164 511.93359 L 648.58789 444.95117 C 653.15159 441.47076 656.67885 437.11139 658.78125 431.75977 C 661.06401 425.94908 662.14062 418.56279 662.14062 409.54688 C 662.14062 394.97544 659.47661 384.12492 653.67383 377.11914 C 647.86651 370.10786 638.49215 366.72461 626.1543 366.72461 L 592.21875 366.72461 z M 940.68164 367.69922 L 940.68164 369.69922 L 940.68164 426.09766 L 960.69336 426.09766 L 960.69336 367.69922 L 940.68164 367.69922 z M 970.85156 367.69922 L 970.85156 369.69922 L 970.85156 426.09766 L 990.87109 426.09766 L 990.87109 367.69922 L 970.85156 367.69922 z M 500.08594 373.75977 L 500.08594 403.73828 L 488.07617 403.73828 L 488.07617 423.94922 L 500.08594 423.94922 L 500.08594 484.73242 L 500.08594 487.96484 C 500.08594 496.53231 502.01415 503.28994 506.16211 507.94727 L 506.16992 507.96289 L 506.18359 507.9707 C 510.40967 512.56105 516.73234 514.76953 524.64648 514.76953 C 526.75074 514.76953 528.76619 514.63054 530.69141 514.35547 C 532.62981 514.07843 534.5607 513.63069 536.48633 513.01172 L 537.88281 512.5625 L 537.76367 491.56055 L 535.29102 492.17383 C 534.02858 492.48942 532.94056 492.73964 532.01367 492.92578 C 531.20085 493.03955 530.51646 493.0957 530.01367 493.0957 C 527.58155 493.0957 526.06408 492.48951 525.00781 491.44141 C 524.04286 490.42415 523.42187 488.77804 523.42188 486.11328 L 523.42188 423.94922 L 537.875 423.94922 L 537.875 403.73828 L 523.42188 403.73828 L 523.42188 373.75977 L 500.08594 373.75977 z M 892.80273 373.75977 L 892.80273 403.73828 L 880.79297 403.73828 L 880.79297 423.94922 L 892.80273 423.94922 L 892.80273 484.73242 L 892.80273 487.96484 C 892.80273 496.53231 894.73099 503.28994 898.87891 507.94727 L 898.88477 507.96289 L 898.90039 507.9707 C 903.12647 512.56105 909.44914 514.76953 917.36328 514.76953 C 919.46753 514.76953 921.48299 514.63054 923.4082 514.35547 C 925.34661 514.07843 927.27749 513.63069 929.20312 513.01172 L 930.59766 512.5625 L 930.48047 491.56055 L 928.00781 492.17383 C 926.74269 492.49017 925.65079 492.73953 924.72266 492.92578 C 923.91781 493.03766 923.23545 493.0957 922.73633 493.0957 C 920.3042 493.0957 918.78087 492.48951 917.72461 491.44141 C 916.75966 490.42415 916.13672 488.77804 916.13672 486.11328 L 916.13672 423.94922 L 930.5918 423.94922 L 930.5918 403.73828 L 916.13672 403.73828 L 916.13672 373.75977 L 892.80273 373.75977 z M 617.99609 391.13672 L 623.81445 391.13672 C 628.79527 391.13672 631.67089 392.39813 633.21094 394.58398 L 633.22656 394.60742 L 633.24219 394.62891 C 634.82014 396.7493 635.97266 401.53089 635.97266 408.76562 C 635.97266 416.79924 634.88108 422.18876 633.36719 424.57031 C 631.84177 426.90935 629.21242 428.15039 624.59766 428.15039 L 617.99805 428.15039 L 617.99609 391.13672 z M 380.06445 401.10156 C 370.97058 401.10156 363.27083 404.20418 357.43945 410.30664 C 351.60101 416.35358 348.66797 424.31521 348.66797 433.76758 L 348.66797 480.53906 C 348.66797 490.8941 351.25689 499.31646 356.58203 505.48242 L 356.58203 505.49023 L 356.58984 505.49023 C 361.97865 511.64886 369.50353 514.76953 378.60352 514.76953 C 388.6128 514.76953 396.51498 511.89018 401.77344 505.99219 C 407.08828 500.1027 409.60742 491.51368 409.60742 480.53906 L 409.60742 470.72852 L 385.68164 470.72852 L 385.68164 479.95508 C 385.68164 485.93301 384.78838 489.74943 384.10156 490.71094 L 384.09375 490.71094 L 384.09375 490.71875 C 383.32246 491.81481 381.91262 492.50586 379.08984 492.50586 C 376.50001 492.50586 375.19743 491.80326 374.26953 490.33594 C 373.40451 488.81037 372.68945 485.24672 372.68945 479.95508 L 372.68945 462.32812 L 409.60547 462.32812 L 409.60547 433.76758 C 409.60547 423.55155 407.12809 415.40941 401.95898 409.67383 C 396.7929 403.94153 389.31572 401.10352 380.06445 401.10352 L 380.06445 401.10156 z M 452.16211 401.10156 C 443.31922 401.10156 435.72929 404.13498 429.83984 410.09375 C 423.94091 416.06208 420.95898 423.83754 420.95898 432.98438 C 420.95898 433.44302 421.00077 433.94596 421.07031 434.57227 C 421.13078 435.11784 421.1582 435.52442 421.1582 435.7168 L 421.1582 437.7168 L 444.78125 437.7168 L 444.78125 429.95898 C 444.78125 427.60555 445.39489 426.07386 446.54492 424.92383 C 447.69496 423.77379 449.21883 423.16602 451.57227 423.16602 C 453.21568 423.16602 454.03631 423.60242 454.80469 424.73242 C 455.57681 425.86787 456.11914 427.85135 456.11914 430.74023 L 456.11914 440.85352 C 442.07786 448.4792 432.09571 455.63376 426.48047 462.58594 C 420.78317 469.65607 417.93359 478.34615 417.93359 488.35547 C 417.93363 495.97772 419.43689 502.09102 422.7168 506.53711 L 422.72461 506.54492 L 422.73242 506.55273 C 426.07538 510.98578 431.03413 513.30664 436.92773 513.30664 C 441.22287 513.30664 445.44712 512.03785 449.48438 509.60156 C 452.30436 507.89987 454.6495 505.11501 457.05664 502.4707 C 457.1447 503.42643 457.19559 504.60439 457.30859 505.42383 L 457.31641 505.46875 L 457.32422 505.50586 C 457.66702 507.42529 458.1127 509.13639 458.68945 510.65039 L 459.18359 511.93555 L 482.51758 511.93555 L 481.93555 509.47656 C 481.40301 507.22801 480.94322 503.44643 480.62109 498.29297 C 480.29908 493.14004 480.13281 487.09123 480.13281 480.15625 L 480.13281 435.7168 C 480.13281 424.39027 477.96627 415.72185 473.24609 409.85742 C 468.59523 403.99934 461.3513 401.10156 452.16406 401.10156 L 452.16211 401.10156 z M 704.59375 401.10156 C 695.4976 401.10156 687.80064 404.20119 681.96875 410.30664 C 676.13032 416.35358 673.19922 424.31521 673.19922 433.76758 L 673.19922 480.53906 C 673.19922 490.8941 675.78616 499.31646 681.11133 505.48242 L 681.11133 505.49023 L 681.11914 505.49023 C 686.50795 511.64886 694.03284 514.76953 703.13281 514.76953 C 713.1421 514.76953 721.04623 511.89018 726.30469 505.99219 C 731.61953 500.1027 734.13672 491.51368 734.13672 480.53906 L 734.13672 470.72852 L 710.21094 470.72852 L 710.21094 479.95508 C 710.21094 485.93304 709.31959 489.74943 708.63281 490.71094 L 708.625 490.71875 C 707.85371 491.81485 706.44188 492.50586 703.61914 492.50586 C 701.03258 492.50586 699.73436 491.79941 698.80664 490.33594 C 697.94162 488.81037 697.21875 485.24672 697.21875 479.95508 L 697.21875 462.32812 L 734.13672 462.32812 L 734.13672 433.76758 C 734.13672 423.55155 731.6652 415.40941 726.49609 409.67383 C 721.32997 403.94153 713.84498 401.10352 704.59375 401.10352 L 704.59375 401.10156 z M 773.4668 401.10156 C 764.53105 401.10156 757.01435 403.90116 751.35742 409.48828 C 745.69565 415.08013 742.85348 422.57474 742.85352 431.51562 C 742.85352 437.7478 744.31323 443.43911 747.23242 448.44336 L 747.23242 448.45703 L 747.24023 448.46484 C 750.2343 453.4782 755.10936 458.43794 761.81836 463.48633 L 761.86328 463.52539 L 761.90625 463.55469 C 762.01623 463.62801 762.07932 463.68284 762.0918 463.69531 L 762.1875 463.79102 L 762.29883 463.88086 C 768.80498 468.80876 773.64409 473.14734 776.78125 476.8125 C 779.91837 480.47766 781.23242 483.44144 781.23242 485.33203 C 781.23242 487.734 780.5931 489.36894 779.35742 490.66211 C 778.12824 491.88331 776.57751 492.50781 774.25 492.50781 C 771.08476 492.50781 768.99977 491.52186 767.33984 489.38477 C 765.68195 487.18648 764.25627 483.11147 763.43555 477.24023 L 763.14062 475.09375 L 740.49219 480.16406 L 740.7207 481.96484 C 741.99803 492.04881 745.51525 500.14217 751.35156 505.97852 C 757.17948 511.80643 764.69599 514.77148 773.4668 514.77148 C 782.58381 514.77148 790.1952 512.01645 795.86328 506.48828 C 801.59539 500.89602 804.4707 493.35751 804.4707 484.34961 C 804.4707 478.30985 803.05126 472.78284 800.19727 467.91016 L 800.19727 467.92578 C 797.32622 462.95396 792.23387 457.51273 784.9082 451.375 L 784.89453 451.35938 L 784.87891 451.35352 C 783.51525 450.24963 781.60181 448.68924 779.12891 446.67188 L 779.11328 446.6582 L 779.09766 446.65039 C 774.58808 443.10032 771.25067 439.89717 769.10938 437.14844 C 766.96808 434.3997 766.0918 432.15021 766.0918 430.54297 C 766.0918 428.10011 766.69997 426.46499 767.81055 425.25781 L 767.82617 425.24219 L 767.83398 425.22656 C 768.95015 423.96484 770.32134 423.36723 772.49219 423.36719 C 774.76452 423.36719 776.26717 424.10751 777.63672 425.89844 L 777.65234 425.91406 L 777.66016 425.92188 C 779.02441 427.65343 780.18647 430.63694 780.87109 434.86914 L 781.21094 436.99414 L 803.31055 431.70117 L 803.19336 430.01172 C 802.58206 421.24983 799.63469 414.09385 794.29883 408.89844 C 788.96455 403.7045 781.87572 401.10352 773.4668 401.10352 L 773.4668 401.10156 z M 844.87891 401.10156 C 835.78272 401.10156 828.07802 404.20115 822.24609 410.30664 C 816.40767 416.35358 813.48434 424.31521 813.48438 433.76758 L 813.48438 480.53906 C 813.48438 490.8941 816.0655 499.31646 821.39062 505.48242 L 821.39844 505.49023 C 826.78729 511.64886 834.31023 514.76953 843.41016 514.76953 C 853.41948 514.76953 861.32357 511.89018 866.58203 505.99219 C 871.89688 500.1027 874.41406 491.51368 874.41406 480.53906 L 874.41406 470.72852 L 850.49805 470.72852 L 850.49805 479.95508 C 850.49805 485.93301 849.60478 489.74943 848.91797 490.71094 L 848.91016 490.71094 L 848.91016 490.71875 C 848.13887 491.81481 846.72707 492.50586 843.9043 492.50586 C 841.31449 492.50586 840.0119 491.80326 839.08398 490.33594 C 838.21896 488.81037 837.50586 485.24672 837.50586 479.95508 L 837.50586 462.32812 L 874.41406 462.32812 L 874.41406 433.76758 C 874.41406 423.55155 871.94258 415.40941 866.77344 409.67383 C 861.60731 403.94157 854.13009 401.10352 844.87891 401.10352 L 844.87891 401.10156 z M 339.12305 402.56445 C 334.37219 402.56445 329.98979 404.02186 326.2207 406.85938 C 326.218 406.86134 326.21591 406.86341 326.21289 406.86719 C 326.20836 406.87059 326.2018 406.87122 326.19727 406.875 C 324.09745 408.4237 322.2401 410.47162 320.52148 412.81055 L 320.52148 403.73828 L 296.89258 403.73828 L 296.89258 511.93359 L 298.89258 511.93359 L 320.52148 511.93359 L 320.52148 441.76953 C 320.52148 436.92784 321.7994 433.42788 324.26367 430.85156 C 326.79231 428.27725 330.12918 426.97656 334.73242 426.97656 C 335.82904 426.97656 336.80116 427.09316 337.66211 427.30859 L 337.7207 427.32422 L 337.78125 427.33203 C 338.64982 427.49493 339.4386 427.76617 340.17969 428.13672 L 343.08008 429.58203 L 343.08008 402.56445 L 339.12305 402.56445 z M 379.28125 423.36523 C 381.78133 423.36523 383.08031 424.01915 383.98438 425.33008 L 383.99805 425.35156 L 384.01367 425.36719 C 384.95171 426.66262 385.68164 429.41534 385.68164 433.56836 L 385.68164 442.11719 L 372.68945 442.11719 L 372.68945 433.56836 C 372.68945 429.42048 373.39634 426.66086 374.28516 425.35938 C 375.23658 424.05642 376.64413 423.36719 379.28125 423.36719 L 379.28125 423.36523 z M 703.81836 423.36523 C 706.3184 423.36523 707.60957 424.01915 708.51367 425.33008 L 708.5293 425.35156 L 708.54492 425.36719 C 709.48296 426.66262 710.21289 429.41534 710.21289 433.56836 L 710.21289 442.11719 L 697.2207 442.11719 L 697.2207 433.56836 C 697.2207 429.42048 697.92566 426.66086 698.81445 425.35938 C 699.76591 424.05642 701.18318 423.36719 703.82031 423.36719 L 703.81836 423.36523 z M 844.09766 423.36523 C 846.59774 423.36523 847.89477 424.01915 848.79883 425.33008 L 848.81445 425.35156 L 848.82227 425.36719 C 849.76034 426.66262 850.49805 429.41534 850.49805 433.56836 L 850.49805 442.11719 L 837.50586 442.11719 L 837.50586 433.56836 C 837.50586 429.42048 838.20297 426.66086 839.0918 425.35938 C 840.04322 424.05321 841.45716 423.36719 844.09766 423.36719 L 844.09766 423.36523 z M 456.11914 461.2793 L 456.11914 483.35156 C 454.88766 485.88849 453.3546 487.91482 451.42383 489.4043 C 449.47601 490.89211 447.69149 491.53125 445.91016 491.53125 C 444.64281 491.53125 444.00976 491.179 443.23828 489.87695 C 442.47262 488.58496 441.95312 486.41492 441.95312 483.37305 C 441.95312 478.22174 443.15496 474.00556 445.51172 470.5293 C 447.32952 467.84802 451.64112 464.56749 456.11914 461.2793 z "
     style="color:#000000;font-style:normal;font-variant:normal;font-weight:normal;font-stretch:condensed;font-size:52.9167px;line-height:1.15;font-family:'AlternateGothic2 BT';-inkscape-font-specification:'AlternateGothic2 BT Condensed';font-variant-ligatures:normal;font-variant-position:normal;font-variant-caps:normal;font-variant-numeric:normal;font-variant-alternates:normal;font-variant-east-asian:normal;font-feature-settings:normal;font-variation-settings:normal;text-indent:0;text-align:center;text-decoration:none;text-decoration-line:none;text-decoration-style:solid;text-decoration-color:#000000;letter-spacing:0.264583px;word-spacing:normal;text-transform:none;writing-mode:lr-tb;direction:ltr;text-orientation:mixed;dominant-baseline:auto;baseline-shift:baseline;text-anchor:middle;white-space:normal;shape-padding:0;shape-margin:0;inline-size:0;clip-rule:nonzero;display:inline;overflow:visible;visibility:visible;isolation:auto;mix-blend-mode:normal;color-interpolation:sRGB;color-interpolation-filters:linearRGB;solid-color:#000000;solid-opacity:1;vector-effect:none;fill:#00448d;fill-opacity:1;fill-rule:nonzero;stroke:none;stroke-width:3.99999;stroke-linecap:butt;stroke-linejoin:miter;stroke-miterlimit:4;stroke-dasharray:none;stroke-dashoffset:0;stroke-opacity:1;color-rendering:auto;image-rendering:auto;shape-rendering:auto;text-rendering:auto;enable-background:accumulate;stop-color:#000000"
     id="path249" />
  <path
     transform="scale(0.26458333)"
     d="M 825.68359 583.9668 L 825.68359 594.64648 L 833.24414 594.64648 L 833.24414 583.9668 L 825.68359 583.9668 z M 277.75 584.08594 L 277.75 668.32617 L 284.95117 668.32617 L 284.95117 628.9668 L 296.83008 628.9668 C 302.59008 629.2068 307.15148 629.56656 310.27148 634.72656 C 312.31148 638.08656 312.31188 640.72664 312.67188 647.80664 C 312.91187 654.76664 313.15109 659.68641 313.87109 662.56641 C 314.35109 664.36641 314.59039 665.20617 316.15039 668.32617 L 324.55078 668.32617 L 324.55078 667.48633 C 323.47078 666.76633 323.11062 666.52641 322.39062 665.56641 C 320.83063 663.40641 320.59156 660.76547 320.35156 655.60547 C 320.23156 653.20547 320.11023 650.80711 319.99023 648.28711 C 319.51023 639.40711 319.27 635.32633 316.75 631.48633 C 314.11 627.40633 310.2718 626.4457 308.5918 625.8457 C 312.5518 623.6857 319.1518 620.44539 320.5918 609.52539 C 320.8318 607.72539 320.95117 605.2057 320.95117 604.8457 C 320.95117 595.6057 316.15039 590.44602 313.15039 588.16602 C 308.83039 584.80602 303.67148 584.44594 298.27148 584.08594 L 277.75 584.08594 z M 790.18555 584.92578 L 778.90625 599.92578 L 785.38477 599.92578 L 800.26562 584.92578 L 790.18555 584.92578 z M 801.96094 588.28711 L 801.96094 606.40625 L 795.7207 606.40625 L 795.7207 611.44727 L 801.8418 611.44727 L 801.8418 658.00586 C 801.96199 658.36567 801.9616 660.64727 802.44141 662.44727 C 802.5616 662.92727 803.04219 664.60688 804.24219 666.04688 C 806.64219 669.28687 810.1225 669.28711 811.5625 669.28711 C 813.1225 669.28711 814.20227 669.1666 817.32227 668.56641 L 817.32227 663.52539 C 816.48227 663.64558 814.68094 663.76563 813.96094 663.76562 C 812.52094 663.76562 809.4025 663.88574 808.5625 659.68555 C 808.3225 658.36555 808.44141 656.32594 808.44141 656.08594 L 808.44141 611.44727 L 816.96094 611.44727 L 816.96094 606.40625 L 808.56055 606.40625 L 808.56055 588.28711 L 801.96094 588.28711 z M 284.95117 590.32617 L 296.4707 590.32617 C 300.5507 590.44636 301.99016 590.56602 303.91016 591.16602 C 305.95016 591.76602 307.51141 592.48688 309.19141 594.04688 C 312.67141 597.04687 313.75 601.00641 313.75 605.56641 C 313.75 613.00641 310.9907 616.72672 308.4707 618.88672 C 305.7107 621.28672 303.19047 622.12633 296.23047 622.48633 L 284.95117 622.48633 L 284.95117 590.32617 z M 396.95117 604.48633 C 390.95117 604.48633 386.99164 607.24555 385.43164 608.68555 C 380.99164 612.76555 380.51172 618.40727 380.51172 620.44727 C 380.51172 626.20727 383.51094 630.76672 387.71094 633.88672 C 390.83094 636.16672 395.9907 638.32641 396.4707 638.56641 C 400.5507 640.36641 405.83023 642.76594 407.99023 647.08594 C 409.07023 649.36594 409.19141 651.52633 409.19141 652.48633 C 409.19141 654.40633 408.59164 660.28688 403.43164 663.04688 C 401.75164 663.88687 399.95125 664.36719 398.03125 664.36719 C 393.47125 664.36719 389.2707 661.96672 387.4707 657.88672 C 386.9907 656.56672 386.63039 654.88562 386.15039 651.76562 L 379.31055 651.64648 C 379.31055 652.48648 379.55 656.80578 380.75 659.92578 C 382.43 663.88578 386.87141 670.00586 397.19141 670.00586 C 398.27141 670.00586 400.79188 669.88583 403.67188 669.16602 C 408.83187 667.84602 412.5518 665.08578 414.5918 659.92578 C 415.0718 658.84578 415.91016 656.08547 415.91016 652.60547 C 415.91016 643.12547 410.39062 639.04586 407.39062 637.00586 C 402.83063 634.12586 397.79156 632.80578 393.35156 629.92578 C 391.79156 628.96578 387.23047 626.20594 387.23047 620.08594 C 387.23047 614.44594 391.1918 610.36523 396.5918 610.36523 C 400.6718 610.36523 404.51141 612.64609 406.19141 616.24609 C 407.03141 618.04609 407.39 619.72563 407.75 621.76562 L 414.11133 621.88672 C 413.99114 621.16672 413.63164 616.96594 412.43164 614.08594 C 409.79164 607.96594 403.43117 604.48633 396.95117 604.48633 z M 769.42969 604.7207 C 766.47328 604.72566 762.115 605.04079 758.125 609.76562 C 756.925 611.20562 756.805 611.4457 755.125 613.8457 L 755.125 606.04688 L 748.76562 606.04688 L 748.76562 668.32617 L 755.60547 668.32617 L 755.60547 626.80664 C 755.72528 625.60664 755.84516 618.40555 760.28516 614.68555 C 762.56516 612.64555 764.72438 611.80617 770.48438 611.32617 L 770.60547 604.72656 C 770.24547 604.72656 769.85203 604.72 769.42969 604.7207 z M 351.63281 604.72656 C 349.83281 604.72656 345.87211 604.84652 341.91211 607.48633 C 338.19211 609.88633 336.39187 613.36664 335.67188 614.80664 C 331.83188 623.08664 332.07227 637.84727 332.07227 638.44727 C 332.07227 646.24727 333.03195 652.00586 333.75195 655.00586 C 337.23195 667.72586 346.11367 669.88672 351.51367 669.88672 C 353.43367 669.88672 355.11289 669.64715 355.71289 669.52734 C 356.67289 669.40753 359.07266 668.92719 361.47266 667.36719 C 368.19266 663.16719 369.27367 655.0068 369.51367 652.9668 C 369.75367 651.5268 369.87328 650.08648 370.11328 648.64648 L 363.63281 648.52539 C 363.27281 652.36539 362.79195 656.44555 360.75195 659.68555 C 358.47195 663.16555 355.59367 664.24609 351.51367 664.24609 C 346.83367 664.24609 344.67266 662.08539 343.47266 660.52539 C 338.67266 654.40539 338.9132 644.32562 339.0332 636.76562 L 370.35352 636.76562 C 370.59352 628.48563 370.23367 626.56562 369.51367 621.76562 C 368.43367 616.72563 367.23344 612.04555 363.27344 608.68555 C 359.07344 604.96555 353.43281 604.72656 351.63281 604.72656 z M 498.14648 604.72656 C 489.50648 604.72656 485.30734 609.76688 483.02734 612.04688 L 483.02734 606.04688 L 476.78711 606.04688 L 476.78711 668.32617 L 483.50781 668.32617 L 483.50781 619.48633 C 485.78781 616.00633 487.94797 612.88617 491.66797 611.32617 C 493.70797 610.48617 495.26742 610.36719 496.10742 610.36719 C 501.38742 610.36719 503.90695 614.08648 504.62695 615.64648 C 505.10695 616.48648 505.34789 617.92617 505.58789 620.32617 L 505.58789 668.32617 L 512.42773 668.32617 L 512.42773 618.04688 C 514.70773 615.04688 515.90766 613.72648 517.34766 612.64648 C 520.10766 610.48648 522.98773 610.24609 524.42773 610.24609 C 528.38773 610.24609 532.10773 612.88656 533.42773 616.72656 C 534.02773 618.64656 534.14648 620.68625 534.14648 621.40625 L 534.14648 668.32617 L 540.62695 668.32617 L 540.62695 622.72656 C 540.74676 615.76656 540.14719 613.24719 537.86719 610.36719 C 534.02719 605.08719 528.62766 604.72656 526.34766 604.72656 C 520.46766 604.72656 516.14789 607.24641 514.58789 608.56641 C 513.26789 609.52641 511.10742 611.68555 511.10742 611.68555 C 508.46742 608.68555 506.66727 606.64727 502.94727 605.44727 C 502.22727 605.20727 500.42648 604.84656 498.14648 604.72656 z M 572.98438 604.72656 C 568.42438 604.72656 563.74477 605.92664 560.38477 608.80664 C 554.62477 613.72664 551.86438 623.92586 551.98438 640.00586 C 551.98438 641.80586 551.74469 653.32633 556.30469 661.48633 C 558.10469 664.36633 559.54609 665.68539 560.74609 666.52539 C 562.78609 667.96539 566.50523 670.00586 572.86523 670.00586 C 577.06523 670.00586 581.14563 669.04539 584.26562 666.52539 C 592.78562 659.44539 592.90625 643.12578 592.90625 641.92578 C 593.02606 640.12578 593.02539 638.20625 593.02539 636.40625 C 593.02539 624.04625 590.74586 616.00641 587.50586 611.56641 C 582.82586 605.08641 575.74437 604.84656 572.98438 604.72656 z M 648.92383 604.72656 C 647.12383 604.72656 643.16312 604.84652 639.20312 607.48633 C 635.48313 609.88633 633.68289 613.36664 632.96289 614.80664 C 629.12289 623.08664 629.36328 637.84727 629.36328 638.44727 C 629.36328 646.24727 630.32297 652.00586 631.04297 655.00586 C 634.52297 667.72586 643.40273 669.88672 648.80273 669.88672 C 650.72273 669.88672 652.40391 669.64715 653.00391 669.52734 C 653.96391 669.40753 656.36367 668.92719 658.76367 667.36719 C 665.48367 663.16719 666.56273 655.0068 666.80273 652.9668 C 667.04273 651.5268 667.16411 650.08648 667.4043 648.64648 L 660.92383 648.52539 C 660.56402 652.36539 660.08297 656.44555 658.04297 659.68555 C 655.76297 663.16555 652.88273 664.24609 648.80273 664.24609 C 644.12273 664.24609 641.96367 662.08539 640.76367 660.52539 C 635.96367 654.40539 636.20422 644.32562 636.32422 636.76562 L 667.64258 636.76562 C 667.88258 628.48563 667.52255 626.56562 666.80273 621.76562 C 665.72273 616.72563 664.5225 612.04555 660.5625 608.68555 C 656.3625 604.96555 650.72383 604.72656 648.92383 604.72656 z M 723.12305 604.72656 C 716.28305 604.72656 713.04305 607.84586 711.12305 610.00586 C 709.68305 611.44586 708.60258 613.12578 707.64258 614.92578 C 703.80258 622.96578 704.16406 637.0068 704.16406 637.9668 C 704.16406 651.8868 706.44391 660.2857 711.00391 664.8457 C 715.56391 669.5257 721.92398 670.00586 724.08398 670.00586 C 735.48398 669.88567 739.08406 661.24602 740.16406 657.16602 C 741.00406 653.92602 741.36328 648.64602 741.36328 648.16602 L 735.00391 648.04688 C 734.64372 652.96687 734.16312 658.72594 730.20312 662.08594 C 728.04313 664.00594 725.28398 664.24609 724.08398 664.24609 C 722.40398 664.24609 717.60375 663.76531 714.84375 659.44531 C 711.60375 654.52531 711.00391 643.7268 711.00391 637.9668 C 711.00391 628.7268 712.2032 621.28687 713.2832 618.04688 C 715.5632 611.56688 720.00391 610.60547 723.00391 610.60547 C 726.12391 610.60547 731.4025 611.32586 733.5625 619.00586 C 734.0425 620.80586 734.52344 624.40625 734.52344 624.40625 L 741.00391 624.40625 C 739.92391 616.24625 738.84398 613.12672 736.08398 609.88672 C 734.16398 607.60672 730.44305 604.72656 723.12305 604.72656 z M 862.7793 604.72656 C 855.9393 604.72656 852.6993 607.84586 850.7793 610.00586 C 849.3393 611.44586 848.25883 613.12578 847.29883 614.92578 C 843.45883 622.96578 843.82031 637.0068 843.82031 637.9668 C 843.82031 651.8868 846.10016 660.2857 850.66016 664.8457 C 855.22016 669.5257 861.58023 670.00586 863.74023 670.00586 C 875.14023 669.88567 878.74031 661.24602 879.82031 657.16602 C 880.66031 653.92602 881.01953 648.64602 881.01953 648.16602 L 874.66016 648.04688 C 874.30035 652.96687 873.81937 658.72594 869.85938 662.08594 C 867.69938 664.00594 864.94023 664.24609 863.74023 664.24609 C 862.06023 664.24609 857.26 663.76531 854.5 659.44531 C 851.26 654.52531 850.66016 643.7268 850.66016 637.9668 C 850.66016 628.7268 851.85945 621.28687 852.93945 618.04688 C 855.21945 611.56688 859.66016 610.60547 862.66016 610.60547 C 865.78016 610.60547 871.05875 611.32586 873.21875 619.00586 C 873.69875 620.80586 874.17969 624.40625 874.17969 624.40625 L 880.66016 624.40625 C 879.58016 616.24625 878.50023 613.12672 875.74023 609.88672 C 873.82023 607.60672 870.0993 604.72656 862.7793 604.72656 z M 905.10156 604.72656 C 895.14156 604.72656 891.06086 609.64547 889.38086 613.60547 C 888.30086 616.24547 887.94203 619.00586 887.58203 622.00586 L 894.30078 622.00586 C 894.54078 618.76586 894.7825 615.76633 897.0625 613.48633 C 898.0225 612.40633 900.54195 610.36719 904.50195 610.36719 C 907.50195 610.36719 909.42086 611.44602 910.38086 612.16602 C 913.98086 614.56602 914.2207 617.80586 914.2207 622.00586 C 914.2207 625.60586 914.1013 627.16633 913.02148 628.48633 C 910.86148 631.24633 905.4607 632.68563 902.2207 633.76562 C 897.1807 635.32562 892.62086 637.12727 889.38086 641.44727 C 886.02086 646.12727 886.14063 651.28703 886.14062 653.20703 C 886.14062 657.28703 886.7418 659.56609 887.3418 661.24609 C 888.5418 664.36609 892.02125 670.12695 900.78125 670.12695 C 908.82125 670.12695 912.66203 665.44711 914.58203 663.28711 C 914.82203 664.00711 915.42102 667.72664 918.54102 668.80664 C 919.50102 669.16645 920.34227 669.16602 920.82227 669.16602 C 922.62227 669.16602 925.62133 668.68555 925.86133 668.68555 L 925.86133 664.00586 C 922.86133 663.64605 921.4225 663.40711 921.0625 660.28711 C 920.8225 659.08711 920.82098 657.88555 920.70117 656.68555 L 920.70117 619.8457 C 920.70117 619.1257 920.58167 614.80641 919.02148 611.56641 C 918.42148 610.36641 917.34172 608.8068 916.26172 607.9668 C 912.30172 604.8468 906.06156 604.72656 905.10156 604.72656 z M 426.85156 606.64648 L 426.85156 652.72656 C 426.97137 659.20656 427.57023 661.48695 429.49023 664.12695 C 433.57023 669.52695 439.45023 670.00586 441.49023 670.00586 C 445.45023 670.00586 449.77086 668.68687 453.13086 666.04688 C 454.57086 664.96688 455.41047 664.12555 456.73047 662.68555 L 456.73047 668.32617 L 462.9707 668.32617 L 462.9707 606.64648 L 456.49023 606.64648 L 456.49023 653.92578 C 454.33023 657.64578 452.29008 661.12602 448.33008 663.16602 C 447.49008 663.64602 445.69187 664.36719 443.17188 664.36719 C 441.97188 664.36719 439.69102 664.24636 437.29102 662.32617 C 433.33102 659.20617 433.33117 655.36555 433.45117 650.68555 L 433.45117 606.64648 L 426.85156 606.64648 z M 826.16406 606.64648 L 826.16406 668.32617 L 832.64258 668.32617 L 832.64258 606.64648 L 826.16406 606.64648 z M 779.74609 606.88672 L 779.74609 668.32617 L 786.46484 668.32617 L 786.46484 606.88672 L 779.74609 606.88672 z M 351.51367 610.24609 C 352.71367 610.24609 355.71352 610.24602 358.35352 612.16602 C 363.87352 616.36602 363.87305 627.04563 363.87305 627.76562 C 363.87305 628.96562 363.87219 630.16719 363.99219 631.36719 L 339.0332 631.48633 C 339.3932 626.32633 339.87234 620.80695 342.15234 616.12695 C 343.23234 613.84695 345.27367 610.24609 351.51367 610.24609 z M 648.80273 610.24609 C 650.00273 610.24609 653.00258 610.24602 655.64258 612.16602 C 661.16258 616.36602 661.16406 627.04563 661.16406 627.76562 C 661.16406 628.96562 661.16301 630.16719 661.2832 631.36719 L 636.32422 631.48633 C 636.68403 626.32633 637.16336 620.80695 639.44336 616.12695 C 640.52336 613.84695 642.56273 610.24609 648.80273 610.24609 z M 572.50586 610.48633 C 576.22586 610.48633 579.585 611.80703 581.625 614.20703 C 584.145 617.08703 584.98547 621.8857 585.10547 622.8457 C 586.18547 628.6057 586.18555 634.48688 586.18555 636.04688 C 586.18555 642.64687 585.94508 657.64727 579.70508 662.44727 C 577.78508 663.76727 575.38523 664.36719 572.86523 664.36719 C 567.10523 664.36719 564.22539 661.60687 563.02539 660.04688 C 561.70539 658.24688 560.62602 655.96664 559.66602 650.80664 C 559.18602 647.80664 558.70508 643.36648 558.70508 636.64648 C 558.70508 630.40648 559.18594 623.68578 561.58594 617.92578 C 562.54594 615.64578 563.38461 614.32547 564.22461 613.60547 C 566.86461 610.84547 571.18586 610.60633 572.50586 610.48633 z M 914.3418 635.08594 L 914.3418 649.60547 C 914.1018 653.68547 913.74156 656.92688 911.10156 660.04688 C 908.82156 662.68687 905.46156 664.36719 902.10156 664.36719 C 899.34156 664.36719 897.78227 663.40555 896.82227 662.68555 C 894.66227 661.00555 893.10156 658.36656 893.10156 652.72656 C 893.10156 646.96656 895.98234 643.72711 897.90234 642.28711 C 899.34234 641.32711 900.90203 640.60586 902.58203 640.00586 L 914.3418 635.08594 z "
     style="font-style:normal;font-variant:normal;font-weight:300;font-stretch:normal;font-size:31.75px;line-height:1;font-family:'Helvetica Condensed BQ';-inkscape-font-specification:'Helvetica Condensed BQ Light';letter-spacing:-0.0264583px;fill:#00448d;fill-opacity:1;stroke-width:0.999999"
     id="path69" />
  <path
     id="rect851"
     style="fill:#829fe3;fill-opacity:1;stroke-width:2"
     d="m 0,282.31043 h 317.5 v 141.0229 H 0 Z" />
  <path
     transform="scale(0.26458333)"
     d="M 768.57227 1431.5781 C 764.96837 1431.5781 762.15991 1432.7038 760.30469 1434.959 C 758.44951 1437.2142 757.56641 1440.5233 757.56641 1444.8496 L 757.56641 1473.0938 C 757.56641 1475.5817 757.66706 1477.4457 757.88477 1478.7246 C 758.3154 1481.2278 759.31443 1483.2775 760.88086 1484.8164 C 762.67697 1486.5853 764.80435 1487.502 767.16992 1487.502 C 769.65927 1487.502 771.86901 1485.9994 773.82227 1483.4785 L 774.84766 1486.7207 L 779.69727 1486.7207 L 779.69727 1458.6094 L 779.20312 1458.6094 L 767.96094 1458.6094 L 767.96094 1465.9023 L 771.23828 1465.9023 L 771.23828 1473.0938 C 771.23828 1475.2674 771.13763 1476.7529 770.97852 1477.4336 L 770.97852 1477.4414 C 770.81222 1478.2135 770.51574 1478.7364 770.12305 1479.0723 C 769.73032 1479.4083 769.21797 1479.5898 768.49805 1479.5898 C 767.85817 1479.5898 767.40061 1479.4298 767.04492 1479.125 C 766.69116 1478.8219 766.41975 1478.3432 766.25391 1477.6406 C 766.12087 1477.02 766.02539 1475.4526 766.02539 1473.0938 L 766.02539 1444.8496 C 766.02539 1442.5337 766.27117 1441.0131 766.55664 1440.4805 C 766.91154 1439.8122 767.4903 1439.4902 768.57227 1439.4902 C 769.24272 1439.4902 769.74104 1439.6564 770.13086 1439.9629 C 770.52068 1440.2694 770.82301 1440.7439 771.02344 1441.4395 C 771.24832 1442.2304 771.39258 1444.0052 771.39258 1446.6152 C 771.39258 1447.5388 771.35797 1448.7271 771.28125 1450.1797 L 771.25195 1450.7031 L 779.67383 1450.7031 L 779.69727 1450.2324 C 779.80158 1448.3786 779.85937 1446.9679 779.85938 1445.9863 C 779.85938 1441.2863 778.95046 1437.6914 777.05469 1435.2461 C 775.15891 1432.8008 772.27352 1431.5781 768.57227 1431.5781 z M 947.21484 1432.3965 L 947.21484 1486.7207 L 954.46289 1486.7207 L 954.46289 1454.6465 L 959.74805 1486.7207 L 963.8457 1486.7207 L 969.13086 1454.6465 L 969.13086 1486.7207 L 976.53516 1486.7207 L 976.53516 1432.3965 L 966.64453 1432.3965 L 961.81641 1456.8828 L 956.95117 1432.3965 L 947.21484 1432.3965 z M 838.30859 1435.0547 L 838.30859 1445.9941 L 834.95117 1445.9941 L 834.95117 1453.3984 L 838.30859 1453.3984 L 838.30859 1478.6445 C 838.30859 1481.5373 839.00652 1483.7388 840.49414 1485.1406 L 840.50195 1485.1406 C 842.03841 1486.5653 844.11983 1487.2656 846.6582 1487.2656 C 847.63634 1487.2656 848.98622 1487.0809 850.74805 1486.7129 L 851.14648 1486.625 L 851.14648 1479.2793 L 850.60742 1479.3164 C 849.91021 1479.3682 849.39295 1479.3906 849.08008 1479.3906 C 848.05042 1479.3906 847.37876 1479.1282 846.93164 1478.6445 C 846.48456 1478.1611 846.22266 1477.3956 846.22266 1476.2617 L 846.22266 1453.3984 L 851.14648 1453.3984 L 851.14648 1452.9043 L 851.14648 1445.9941 L 846.22266 1445.9941 L 846.22266 1435.0547 L 838.30859 1435.0547 z M 1022.832 1445.4414 C 1021.4924 1445.4878 1020.2385 1445.9529 1019.1289 1446.8125 C 1018.2253 1447.5126 1017.5098 1448.7648 1016.7734 1449.9648 L 1016.7734 1445.9941 L 1008.8535 1445.9941 L 1008.8535 1446.4961 L 1008.8535 1486.7207 L 1016.7734 1486.7207 L 1016.7734 1459.2676 C 1016.7734 1457.3649 1017.1416 1456.0037 1017.793 1455.1484 C 1018.4443 1454.2932 1019.3718 1453.8711 1020.7598 1453.8711 C 1021.2431 1453.8711 1022.1077 1453.9675 1023.293 1454.1738 L 1023.8828 1454.2773 L 1023.8828 1445.4707 L 1023.4102 1445.4473 C 1023.2154 1445.4367 1023.0234 1445.4348 1022.832 1445.4414 z M 821.70117 1445.4473 C 818.42296 1445.4473 815.86565 1446.3277 814.15625 1448.1348 C 812.44685 1449.9419 811.63086 1452.6113 811.63086 1456.0625 C 811.63086 1460.2248 813.22172 1463.979 816.3418 1467.2324 L 818.99805 1470 L 818.99023 1470 C 820.51913 1471.6066 821.49587 1472.756 821.86328 1473.3301 C 822.56918 1474.4254 822.91797 1475.6071 822.91797 1476.9238 C 822.91797 1478.0043 822.6988 1478.7459 822.34961 1479.1914 C 822.00038 1479.6369 821.51871 1479.8613 820.72656 1479.8613 C 819.949 1479.8613 819.46714 1479.6425 819.12305 1479.1973 C 818.77911 1478.752 818.57031 1478.0053 818.57031 1476.9238 C 818.57031 1476.595 818.6087 1476.2058 818.68164 1475.7578 L 818.7832 1475.1387 L 810.98242 1475.6328 L 810.92969 1476.0391 C 810.87526 1476.447 810.84766 1476.8198 810.84766 1477.1602 C 810.84766 1479.2238 811.2088 1480.9609 811.96289 1482.3574 C 813.7316 1485.5956 816.71858 1487.2656 820.68164 1487.2656 C 824.08197 1487.2656 826.78862 1486.0169 828.62305 1483.5527 C 830.09665 1481.5879 830.83203 1479.2154 830.83203 1476.4961 C 830.83203 1474.3713 830.4016 1472.4691 829.52539 1470.8262 C 828.53126 1468.9723 826.98829 1466.9646 824.91016 1464.7812 L 822.13477 1461.8867 C 820.88525 1460.5862 820.12144 1459.4787 819.82422 1458.6328 C 819.55927 1457.8862 819.42578 1457.0409 819.42578 1456.0996 C 819.42578 1454.9008 819.62155 1454.051 819.92773 1453.5527 C 820.23388 1453.0544 820.59395 1452.8516 821.22656 1452.8516 C 821.76753 1452.8516 822.11017 1453.0041 822.38672 1453.3242 C 822.66338 1453.6443 822.87827 1454.1871 822.96289 1454.9844 L 822.96289 1454.9922 L 822.96289 1455 C 823.009 1455.3231 823.03516 1455.8174 823.03516 1456.4551 L 823.03516 1456.9863 L 830.24805 1456.5215 L 830.2168 1456.5293 L 830.71289 1456.5293 L 830.71289 1456.0273 C 830.71289 1455.1382 830.68566 1454.4262 830.63086 1453.8789 C 830.41505 1451.0992 829.40601 1448.8845 827.60352 1447.3594 C 826.07058 1446.0772 824.07802 1445.4492 821.69922 1445.4492 L 821.70117 1445.4473 z M 866.07227 1445.4473 C 862.24757 1445.4473 859.38992 1446.963 857.74609 1449.9219 C 856.79142 1451.6347 856.20201 1454.3477 855.88672 1458.1309 L 855.8418 1458.6758 L 863.57812 1458.6758 L 863.60742 1458.1973 C 863.71098 1456.2325 863.88005 1454.8934 864.05859 1454.291 C 864.21809 1453.7735 864.4479 1453.4226 864.74414 1453.1992 C 865.04272 1452.974 865.42466 1452.8516 865.95508 1452.8516 C 866.75698 1452.8516 867.15056 1453.0624 867.39453 1453.4941 C 867.42855 1453.5697 867.50102 1453.8359 867.54297 1454.2461 C 867.58568 1454.6688 867.60938 1455.2398 867.60938 1455.9453 L 867.60938 1460.1309 C 866.89765 1460.6048 865.86484 1461.2857 864.35352 1462.2852 C 861.08846 1464.3661 858.83412 1466.4326 857.59961 1468.5449 C 856.27031 1470.7723 855.61328 1473.5088 855.61328 1476.7246 C 855.61328 1480.1215 856.11666 1482.7199 857.20898 1484.5195 C 858.30134 1486.3191 860.03654 1487.2656 862.20508 1487.2656 C 864.3113 1487.2656 866.15242 1486.031 867.75781 1484.0469 C 867.85343 1484.8793 867.93791 1485.7553 868.08984 1486.3438 L 868.18555 1486.7207 L 875.39648 1486.7207 L 875.76562 1486.7207 L 875.76562 1485.7227 L 876.23828 1486.0703 C 875.7957 1484.6691 875.54914 1482.5698 875.52344 1479.8105 L 875.52344 1455.4355 C 875.52344 1452.2817 874.71439 1449.8088 873.04297 1448.1055 C 871.35276 1446.3321 868.98551 1445.4473 866.07422 1445.4473 L 866.07227 1445.4473 z M 915.74609 1445.4473 C 912.48357 1445.4473 909.93437 1446.4279 908.24609 1448.4219 C 906.55785 1450.4158 905.75 1453.3487 905.75 1457.1562 L 905.75 1475.5586 C 905.75 1479.3661 906.55785 1482.2892 908.24609 1484.2832 C 909.93437 1486.2771 912.48357 1487.2656 915.74609 1487.2656 C 919.00858 1487.2656 921.55785 1486.2771 923.24609 1484.2832 C 924.93437 1482.2892 925.73242 1479.3661 925.73242 1475.5586 L 925.73242 1457.1562 C 925.73242 1453.3487 924.93437 1450.4158 923.24609 1448.4219 C 921.55785 1446.4279 919.00858 1445.4473 915.74609 1445.4473 z M 992.75391 1445.4473 C 989.49138 1445.4473 986.94218 1446.4279 985.25391 1448.4219 C 983.56567 1450.4158 982.76562 1453.3487 982.76562 1457.1562 L 982.76562 1475.5586 C 982.76562 1479.3661 983.56567 1482.2892 985.25391 1484.2832 C 986.94218 1486.2771 989.49138 1487.2656 992.75391 1487.2656 C 996.01639 1487.2656 998.56567 1486.2771 1000.2539 1484.2832 C 1001.9422 1482.2892 1002.748 1479.3661 1002.748 1475.5586 L 1002.748 1457.1562 C 1002.748 1453.3487 1001.9422 1450.4158 1000.2539 1448.4219 C 998.56567 1446.4279 996.01639 1445.4473 992.75391 1445.4473 z M 1038.2402 1445.4473 C 1034.4155 1445.4473 1031.5579 1446.963 1029.9141 1449.9219 C 1028.9594 1451.6347 1028.3758 1454.3477 1028.0605 1458.1309 L 1028.0098 1458.6758 L 1035.7461 1458.6758 L 1035.7754 1458.1973 C 1035.8786 1456.2361 1036.0484 1454.9028 1036.2266 1454.2988 L 1036.2266 1454.291 C 1036.3861 1453.7709 1036.615 1453.4233 1036.9121 1453.1992 C 1037.2107 1452.974 1037.5926 1452.8516 1038.123 1452.8516 C 1038.9166 1452.8516 1039.3102 1453.0639 1039.5547 1453.4863 C 1039.5887 1453.5581 1039.669 1453.8312 1039.7109 1454.2461 C 1039.7536 1454.6688 1039.7773 1455.2398 1039.7773 1455.9453 L 1039.7773 1460.1309 C 1039.0657 1460.6048 1038.0328 1461.2857 1036.5215 1462.2852 C 1033.2565 1464.3661 1031.0021 1466.4326 1029.7676 1468.5449 C 1028.4383 1470.7723 1027.7812 1473.5088 1027.7812 1476.7246 C 1027.7812 1480.1215 1028.2826 1482.7199 1029.375 1484.5195 C 1030.4673 1486.3191 1032.2045 1487.2656 1034.373 1487.2656 C 1036.4793 1487.2656 1038.3185 1486.031 1039.9238 1484.0469 C 1040.0195 1484.8793 1040.1039 1485.7553 1040.2559 1486.3438 L 1040.3594 1486.7207 L 1047.9336 1486.7207 L 1048.6133 1486.7207 L 1048.4062 1486.0703 C 1047.9637 1484.6691 1047.7152 1482.5698 1047.6895 1479.8105 L 1047.6895 1455.4355 C 1047.6895 1452.2817 1046.8804 1449.8088 1045.209 1448.1055 C 1043.5188 1446.3321 1041.1515 1445.4473 1038.2402 1445.4473 z M 1064.2402 1445.4473 C 1060.8664 1445.4473 1058.2436 1446.4008 1056.5176 1448.3496 C 1054.8167 1450.3015 1054.0156 1453.2359 1054.0156 1457.082 L 1054.0156 1475.5586 C 1054.0156 1479.0626 1054.7411 1481.7967 1056.2676 1483.7148 C 1058.0991 1486.0657 1060.6783 1487.2656 1063.8477 1487.2656 C 1067.579 1487.2656 1070.4269 1485.981 1072.1895 1483.4199 C 1073.4907 1481.565 1074.1172 1479.0863 1074.1172 1476.0234 C 1074.1172 1475.4527 1074.0759 1474.2239 1073.998 1472.2949 L 1073.9766 1471.8164 L 1066.084 1471.8164 L 1066.084 1472.3105 L 1066.084 1473.9121 L 1066.084 1475.6758 L 1066.084 1475.6836 C 1066.1104 1477.342 1065.9178 1478.4561 1065.6719 1478.9102 L 1065.6719 1478.918 L 1065.6641 1478.9258 C 1065.3201 1479.6138 1064.8457 1479.9004 1063.9668 1479.9004 C 1063.2551 1479.9004 1062.8349 1479.666 1062.4902 1479.1094 C 1062.1455 1478.5526 1061.9277 1477.6125 1061.9277 1476.2969 L 1061.9277 1468.0508 L 1073.998 1468.0508 L 1073.998 1455.8711 C 1073.998 1452.7358 1073.125 1450.1793 1071.3633 1448.3047 C 1069.6004 1446.404 1067.1823 1445.4492 1064.2383 1445.4492 L 1064.2402 1445.4473 z M 1089.6699 1445.4473 C 1086.3917 1445.4473 1083.8364 1446.3277 1082.127 1448.1348 C 1080.4175 1449.9419 1079.6016 1452.6113 1079.6016 1456.0625 C 1079.6016 1460.2248 1081.1905 1463.979 1084.3105 1467.2324 L 1086.9609 1470 C 1088.4898 1471.6066 1089.4647 1472.756 1089.832 1473.3301 C 1090.5379 1474.4254 1090.8887 1475.6071 1090.8887 1476.9238 C 1090.8887 1478.0043 1090.6695 1478.7459 1090.3203 1479.1914 C 1089.9711 1479.6369 1089.4875 1479.8613 1088.6953 1479.8613 C 1087.9178 1479.8613 1087.4379 1479.6425 1087.0938 1479.1973 C 1086.7498 1478.752 1086.5332 1478.0053 1086.5332 1476.9238 C 1086.5332 1476.595 1086.5716 1476.2058 1086.6445 1475.7578 L 1086.748 1475.1387 L 1078.9512 1475.6328 L 1078.9004 1476.0391 C 1078.846 1476.447 1078.8184 1476.8198 1078.8184 1477.1602 C 1078.8184 1479.2238 1079.1795 1480.9609 1079.9336 1482.3574 C 1081.7023 1485.5955 1084.6893 1487.2656 1088.6523 1487.2656 C 1092.0527 1487.2656 1094.7593 1486.0169 1096.5938 1483.5527 C 1098.0673 1481.5879 1098.8008 1479.2154 1098.8008 1476.4961 C 1098.8008 1474.3713 1098.3723 1472.4691 1097.4961 1470.8262 C 1096.502 1468.9723 1094.959 1466.9646 1092.8809 1464.7812 L 1090.1055 1461.8867 C 1088.856 1460.5862 1088.0921 1459.4787 1087.7949 1458.6328 C 1087.53 1457.8862 1087.3965 1457.0409 1087.3965 1456.0996 C 1087.3965 1454.9008 1087.5923 1454.051 1087.8984 1453.5527 C 1088.2046 1453.0544 1088.5646 1452.8516 1089.1973 1452.8516 C 1089.7382 1452.8516 1090.0809 1453.0041 1090.3574 1453.3242 C 1090.6341 1453.6443 1090.849 1454.1871 1090.9336 1454.9844 L 1090.9336 1454.9922 L 1090.9336 1455 C 1090.9797 1455.3231 1091.0059 1455.8174 1091.0059 1456.4551 L 1091.0059 1456.9863 L 1098.2188 1456.5215 L 1098.1797 1456.5293 L 1098.6816 1456.5293 L 1098.6816 1456.0273 C 1098.6816 1455.1382 1098.6564 1454.4262 1098.6016 1453.8789 C 1098.3858 1451.0992 1097.3767 1448.8845 1095.5742 1447.3594 C 1094.0413 1446.0772 1092.0487 1445.4492 1089.6699 1445.4492 L 1089.6699 1445.4473 z M 786.20117 1445.9941 L 786.20117 1477.6621 C 786.20121 1481.135 786.52404 1483.4717 787.375 1484.8086 C 787.81709 1485.5414 788.47365 1486.1306 789.31641 1486.5801 L 789.31641 1486.5879 L 789.32422 1486.5879 C 790.18992 1487.0347 791.06738 1487.2656 791.9375 1487.2656 C 793.82949 1487.2656 795.94905 1485.7433 798.24023 1483.5605 L 798.7793 1486.7207 L 806.0293 1486.7207 L 806.0293 1486.2188 L 806.0293 1445.9941 L 798.11523 1445.9941 L 798.11523 1478.4746 C 796.98735 1479.375 796.03201 1479.8633 795.45117 1479.8633 C 794.97393 1479.8633 794.72561 1479.7215 794.49805 1479.3535 C 794.27052 1478.9854 794.1152 1478.3267 794.11523 1477.3887 L 794.11523 1445.9941 L 786.20117 1445.9941 z M 880.23047 1445.9941 L 887.03711 1486.7207 L 894.44922 1486.7207 L 901.29102 1445.9941 L 900.70117 1445.9941 L 893.5918 1445.9941 L 890.74219 1465.8652 L 887.89453 1445.9941 L 880.23047 1445.9941 z M 915.74609 1452.8516 C 916.48677 1452.8516 916.926 1453.0768 917.26562 1453.5605 C 917.60503 1454.0443 917.82031 1454.86 917.82031 1456.0254 L 917.82031 1476.6875 C 917.82031 1477.853 917.60533 1478.6706 917.26562 1479.1543 C 916.92585 1479.638 916.48677 1479.8613 915.74609 1479.8613 C 915.00538 1479.8613 914.55639 1479.6381 914.2168 1479.1543 C 913.87702 1478.6706 913.66406 1477.853 913.66406 1476.6875 L 913.66406 1456.0254 C 913.66406 1454.86 913.87706 1454.0443 914.2168 1453.5605 C 914.55658 1453.0769 915.00538 1452.8516 915.74609 1452.8516 z M 992.75391 1452.8516 C 993.49458 1452.8516 993.94166 1453.0768 994.28125 1453.5605 C 994.62103 1454.0443 994.83594 1454.86 994.83594 1456.0254 L 994.83594 1476.6875 C 994.83594 1477.853 994.62099 1478.6706 994.28125 1479.1543 C 993.94147 1479.638 993.49458 1479.8613 992.75391 1479.8613 C 992.01319 1479.8613 991.57205 1479.6381 991.23242 1479.1543 C 990.89264 1478.6706 990.67969 1477.853 990.67969 1476.6875 L 990.67969 1456.0254 C 990.67969 1454.86 990.89272 1454.0443 991.23242 1453.5605 C 991.5722 1453.0769 992.01319 1452.8516 992.75391 1452.8516 z M 1064.0039 1452.8516 C 1064.7686 1452.8516 1065.24 1453.048 1065.5605 1453.4121 C 1065.8811 1453.7761 1066.0859 1454.378 1066.0859 1455.2812 L 1066.0859 1461.5039 L 1061.9297 1461.5039 L 1061.9297 1455.2812 C 1061.9297 1454.378 1062.1247 1453.7763 1062.4453 1453.4121 C 1062.7658 1453.0478 1063.2392 1452.8516 1064.0039 1452.8516 z M 867.60742 1467.2246 L 867.60742 1477.9941 C 866.74769 1479.2406 865.94523 1479.8262 865.2168 1479.8262 C 864.64832 1479.8262 864.32336 1479.6175 864.02148 1479.0352 C 863.7195 1478.453 863.52539 1477.4685 863.52539 1476.1055 C 863.52539 1474.0188 863.83474 1472.3251 864.41992 1471.0332 C 864.96584 1469.8049 866.23409 1468.5165 867.60742 1467.2246 z M 1039.7754 1467.2246 L 1039.7754 1477.9941 C 1038.9157 1479.2406 1038.1132 1479.8262 1037.3848 1479.8262 C 1036.8163 1479.8262 1036.4894 1479.6175 1036.1875 1479.0352 C 1035.8855 1478.453 1035.6934 1477.4685 1035.6934 1476.1055 C 1035.6934 1474.0188 1036.0027 1472.3251 1036.5879 1471.0332 C 1037.1338 1469.8049 1038.4021 1468.5165 1039.7754 1467.2246 z "
     style="color:#000000;font-style:normal;font-variant:normal;font-weight:normal;font-stretch:normal;font-size:21.1667px;line-height:1.25;font-family:AlternateGotNo1D;-inkscape-font-specification:AlternateGotNo1D;font-variant-ligatures:normal;font-variant-position:normal;font-variant-caps:normal;font-variant-numeric:normal;font-variant-alternates:normal;font-variant-east-asian:normal;font-feature-settings:normal;font-variation-settings:normal;text-indent:0;text-align:start;text-decoration:none;text-decoration-line:none;text-decoration-style:solid;text-decoration-color:#000000;letter-spacing:0.330729px;word-spacing:normal;text-transform:none;writing-mode:lr-tb;direction:ltr;text-orientation:mixed;dominant-baseline:auto;baseline-shift:baseline;text-anchor:start;white-space:normal;shape-padding:0;shape-margin:0;inline-size:0;clip-rule:nonzero;display:inline;overflow:visible;visibility:visible;isolation:auto;mix-blend-mode:normal;color-interpolation:sRGB;color-interpolation-filters:linearRGB;solid-color:#000000;solid-opacity:1;vector-effect:none;fill:#ffffff;fill-opacity:1;fill-rule:nonzero;stroke:none;stroke-width:0.999999;stroke-linecap:butt;stroke-linejoin:miter;stroke-miterlimit:4;stroke-dasharray:none;stroke-dashoffset:0;stroke-opacity:1;color-rendering:auto;image-rendering:auto;shape-rendering:auto;text-rendering:auto;enable-background:accumulate;stop-color:#000000"
     id="path500" />
  <path
     transform="scale(0.26458333)"
     d="M 768.01172 1430.9727 C 764.40783 1430.9727 761.59936 1432.0983 759.74414 1434.3535 C 757.88896 1436.6087 757.00586 1439.9178 757.00586 1444.2441 L 757.00586 1472.4883 C 757.00586 1474.9763 757.10456 1476.8402 757.32227 1478.1191 C 757.75249 1480.6198 758.75657 1482.6725 760.32031 1484.2109 C 762.11642 1485.9798 764.24381 1486.8965 766.60938 1486.8965 C 769.09725 1486.8965 771.3073 1485.3988 773.25977 1482.8809 L 774.28711 1486.1152 L 779.13672 1486.1152 L 779.13672 1458.0039 L 778.64258 1458.0039 L 767.39844 1458.0039 L 767.39844 1465.2969 L 770.67578 1465.2969 L 770.67578 1472.4883 C 770.67578 1474.6619 770.57709 1476.1475 770.41797 1476.8281 L 770.41797 1476.8359 C 770.25167 1477.6081 769.95523 1478.1309 769.5625 1478.4668 C 769.16981 1478.8028 768.65746 1478.9844 767.9375 1478.9844 C 767.29763 1478.9844 766.84007 1478.8243 766.48438 1478.5195 C 766.13061 1478.2164 765.85921 1477.7377 765.69336 1477.0352 C 765.56032 1476.4145 765.46484 1474.8471 765.46484 1472.4883 L 765.46484 1444.2441 C 765.46484 1441.9282 765.71066 1440.4076 765.99609 1439.875 C 766.35099 1439.2067 766.92975 1438.8848 768.01172 1438.8848 C 768.68217 1438.8848 769.18049 1439.0509 769.57031 1439.3574 C 769.96017 1439.6639 770.2625 1440.1384 770.46289 1440.834 C 770.68853 1441.6233 770.83203 1443.3961 770.83203 1446.0098 C 770.83203 1446.9334 770.79743 1448.1216 770.7207 1449.5742 L 770.69141 1450.0977 L 779.11328 1450.0977 L 779.13672 1449.627 C 779.24103 1447.7731 779.29883 1446.3624 779.29883 1445.3809 C 779.29883 1440.6808 778.38991 1437.0937 776.49414 1434.6484 C 774.59833 1432.2032 771.71297 1430.9727 768.01172 1430.9727 z M 946.6543 1431.791 L 946.6543 1486.1152 L 953.90234 1486.1152 L 953.90234 1454.0332 L 959.19531 1486.1152 L 963.28516 1486.1152 L 968.57031 1454.041 L 968.57031 1486.1152 L 975.97461 1486.1152 L 975.97461 1431.791 L 966.08203 1431.791 L 961.25586 1456.2773 L 956.39844 1431.791 L 946.6543 1431.791 z M 837.74805 1434.4492 L 837.74805 1445.3887 L 834.39062 1445.3887 L 834.39062 1452.793 L 837.74805 1452.793 L 837.74805 1478.0391 C 837.74805 1480.9318 838.45378 1483.1334 839.94141 1484.5352 C 841.47782 1485.9598 843.55933 1486.6602 846.09766 1486.6602 C 847.0758 1486.6602 848.42567 1486.4755 850.1875 1486.1074 L 850.58594 1486.0195 L 850.58594 1478.6738 L 850.04688 1478.7109 C 849.34967 1478.7627 848.83826 1478.7852 848.52539 1478.7852 C 847.4957 1478.7852 846.81817 1478.5224 846.37109 1478.0391 C 845.92398 1477.5556 845.66211 1476.7901 845.66211 1475.6562 L 845.66211 1452.793 L 850.58594 1452.793 L 850.58594 1452.2988 L 850.58594 1445.3906 L 845.66211 1445.3906 L 845.66211 1434.4492 L 837.74805 1434.4492 z M 1022.2695 1444.8359 C 1020.9299 1444.8824 1019.678 1445.3493 1018.5684 1446.209 C 1017.6647 1446.909 1016.9492 1448.1593 1016.2129 1449.3594 L 1016.2129 1445.3887 L 1008.2988 1445.3887 L 1008.2988 1445.8906 L 1008.2988 1486.1152 L 1016.2129 1486.1152 L 1016.2129 1458.6621 C 1016.2129 1456.7594 1016.5811 1455.3982 1017.2324 1454.543 C 1017.8837 1453.6877 1018.8113 1453.2656 1020.1992 1453.2656 C 1020.6826 1453.2656 1021.5452 1453.362 1022.7305 1453.5684 L 1023.3223 1453.6719 L 1023.3223 1444.8652 L 1022.8496 1444.8418 C 1022.6549 1444.8313 1022.4609 1444.8293 1022.2695 1444.8359 z M 821.13867 1444.8418 C 817.86046 1444.8418 815.31101 1445.7222 813.60156 1447.5293 C 811.89216 1449.3364 811.07031 1452.0058 811.07031 1455.457 C 811.07031 1459.6193 812.65918 1463.3735 815.7793 1466.627 L 818.4375 1469.4023 C 819.96016 1471.003 820.93428 1472.1519 821.30078 1472.7246 C 822.00668 1473.82 822.35742 1475.0016 822.35742 1476.3184 C 822.35742 1477.3989 822.13825 1478.1404 821.78906 1478.5859 C 821.43983 1479.0315 820.95625 1479.2578 820.16406 1479.2578 C 819.3865 1479.2578 818.90663 1479.0369 818.5625 1478.5918 C 818.21856 1478.1465 818.00977 1477.3998 818.00977 1476.3184 C 818.00977 1475.9895 818.0462 1475.6004 818.11914 1475.1523 L 818.22266 1474.5332 L 810.42773 1475.0273 L 810.36914 1475.4336 C 810.31472 1475.8416 810.28711 1476.2143 810.28711 1476.5547 C 810.28711 1478.6183 810.64825 1480.3554 811.40234 1481.752 C 813.17109 1484.9901 816.15807 1486.6602 820.12109 1486.6602 C 823.52138 1486.6602 826.22803 1485.4114 828.0625 1482.9473 C 829.53606 1480.9825 830.27148 1478.61 830.27148 1475.8906 C 830.27148 1473.7659 829.84101 1471.8636 828.96484 1470.2207 C 827.97071 1468.3668 826.42771 1466.3591 824.34961 1464.1758 L 821.57422 1461.2812 C 820.32471 1459.9808 819.56093 1458.8733 819.26367 1458.0273 C 818.99873 1457.2807 818.86523 1456.4355 818.86523 1455.4941 C 818.86523 1454.2954 819.06097 1453.4456 819.36719 1452.9473 C 819.67333 1452.4489 820.04117 1452.2461 820.67383 1452.2461 C 821.21479 1452.2461 821.54959 1452.3986 821.82617 1452.7188 C 822.10283 1453.0389 822.31772 1453.5835 822.40234 1454.3809 L 822.40234 1454.3867 L 822.40234 1454.3945 C 822.44845 1454.7177 822.47461 1455.2119 822.47461 1455.8496 L 822.47461 1456.3809 L 829.6875 1455.916 L 829.65625 1455.9238 L 830.15234 1455.9238 L 830.15234 1455.4219 C 830.15234 1454.5266 830.12512 1453.8066 830.07031 1453.2578 C 829.8511 1450.4871 828.84912 1448.2775 827.05078 1446.7559 L 827.04297 1446.7559 C 825.50999 1445.4738 823.51747 1444.8438 821.13867 1444.8438 L 821.13867 1444.8418 z M 865.51172 1444.8418 C 861.68703 1444.8418 858.82938 1446.3575 857.18555 1449.3164 C 856.23084 1451.0293 855.64728 1453.7422 855.33203 1457.5254 L 855.28125 1458.0703 L 863.01562 1458.0703 L 863.04688 1457.5918 C 863.15006 1455.6306 863.31988 1454.2973 863.49805 1453.6934 L 863.49805 1453.6855 C 863.65754 1453.1654 863.88649 1452.8178 864.18359 1452.5938 C 864.48218 1452.3685 864.86411 1452.2461 865.39453 1452.2461 C 866.19156 1452.2461 866.58971 1452.4622 866.83398 1452.8887 C 866.868 1452.9643 866.94047 1453.2305 866.98242 1453.6406 C 867.02551 1454.0633 867.04883 1454.6343 867.04883 1455.3398 L 867.04883 1459.5254 C 866.33711 1459.9993 865.30433 1460.6803 863.79297 1461.6797 C 860.52795 1463.7606 858.27357 1465.827 857.03906 1467.9395 C 855.70746 1470.1678 855.05273 1472.9006 855.05273 1476.1191 C 855.05273 1479.5161 855.55413 1482.1145 856.64648 1483.9141 C 857.73881 1485.7136 859.4838 1486.6602 861.65234 1486.6602 C 863.75856 1486.6602 865.58996 1485.4256 867.19531 1483.4414 C 867.29093 1484.2739 867.37541 1485.1498 867.52734 1485.7383 L 867.63086 1486.1152 L 874.83594 1486.1152 L 875.20508 1486.1152 L 875.20508 1485.1172 L 875.67773 1485.4648 C 875.23568 1484.0652 874.98713 1481.9674 874.96094 1479.2129 L 874.96094 1454.8379 C 874.96094 1451.684 874.15189 1449.2032 872.48047 1447.5 C 870.79026 1445.7266 868.42298 1444.8418 865.51172 1444.8418 z M 915.18359 1444.8418 C 911.92111 1444.8418 909.37187 1445.8303 907.68359 1447.8242 C 905.99535 1449.8182 905.18945 1452.7432 905.18945 1456.5508 L 905.18945 1474.9531 C 905.18945 1478.7607 905.99535 1481.6916 907.68359 1483.6855 C 909.37187 1485.6795 911.92111 1486.6602 915.18359 1486.6602 C 918.44608 1486.6602 920.99535 1485.6795 922.68359 1483.6855 C 924.37187 1481.6916 925.17188 1478.7607 925.17188 1474.9531 L 925.17188 1456.5508 C 925.17188 1452.7432 924.37187 1449.8182 922.68359 1447.8242 C 920.99535 1445.8303 918.44608 1444.8418 915.18359 1444.8418 z M 992.19336 1444.8418 C 988.93087 1444.8418 986.38164 1445.8303 984.69336 1447.8242 C 983.00512 1449.8182 982.20508 1452.7432 982.20508 1456.5508 L 982.20508 1474.9531 C 982.20508 1478.7607 983.00512 1481.6916 984.69336 1483.6855 C 986.38164 1485.6795 988.93087 1486.6602 992.19336 1486.6602 C 995.45585 1486.6602 998.00512 1485.6795 999.69336 1483.6855 C 1001.3816 1481.6916 1002.1875 1478.7607 1002.1875 1474.9531 L 1002.1875 1456.5508 C 1002.1875 1452.7432 1001.3816 1449.8182 999.69336 1447.8242 C 998.00512 1445.8303 995.45585 1444.8418 992.19336 1444.8418 z M 1037.6797 1444.8418 C 1033.855 1444.8418 1030.9973 1446.3575 1029.3535 1449.3164 C 1028.3988 1451.0293 1027.8153 1453.7422 1027.5 1457.5254 L 1027.4551 1458.0703 L 1035.1914 1458.0703 L 1035.2148 1457.5918 C 1035.318 1455.6306 1035.4859 1454.2973 1035.6641 1453.6934 L 1035.6641 1453.6855 C 1035.8236 1453.1654 1036.0545 1452.8178 1036.3516 1452.5938 C 1036.6501 1452.3685 1037.0399 1452.2461 1037.5703 1452.2461 C 1038.3673 1452.2461 1038.7576 1452.4622 1039.002 1452.8887 C 1039.036 1452.9643 1039.1069 1453.2301 1039.1484 1453.6406 C 1039.1911 1454.0633 1039.2168 1454.6343 1039.2168 1455.3398 L 1039.2168 1459.5254 C 1038.5051 1459.9993 1037.4723 1460.6803 1035.9609 1461.6797 C 1032.6959 1463.7606 1030.4415 1465.827 1029.207 1467.9395 C 1027.8754 1470.1678 1027.2207 1472.9006 1027.2207 1476.1191 C 1027.2207 1479.5161 1027.7299 1482.1145 1028.8223 1483.9141 C 1029.9146 1485.7136 1031.6518 1486.6602 1033.8203 1486.6602 C 1035.9281 1486.6602 1037.7571 1485.4226 1039.3633 1483.4355 C 1039.4593 1484.2716 1039.5508 1485.1479 1039.7031 1485.7383 L 1039.7988 1486.1152 L 1047.373 1486.1152 L 1048.0527 1486.1152 L 1047.8457 1485.4648 C 1047.4036 1484.0652 1047.1551 1481.9674 1047.1289 1479.2129 L 1047.1289 1454.8379 C 1047.1289 1451.684 1046.3199 1449.2032 1044.6484 1447.5 C 1042.9582 1445.7266 1040.591 1444.8418 1037.6797 1444.8418 z M 1063.6777 1444.8418 C 1060.3039 1444.8418 1057.6909 1445.7954 1055.9648 1447.7441 L 1055.957 1447.7441 L 1055.957 1447.752 C 1054.2562 1449.7038 1053.4551 1452.6304 1053.4551 1456.4766 L 1053.4551 1474.9531 C 1053.4551 1478.4601 1054.1837 1481.1988 1055.7129 1483.1172 C 1057.544 1485.4624 1060.1216 1486.6602 1063.2871 1486.6602 C 1067.0184 1486.6602 1069.8664 1485.3756 1071.6289 1482.8145 C 1072.9301 1480.9596 1073.5547 1478.4809 1073.5547 1475.418 C 1073.5547 1474.8473 1073.5154 1473.6204 1073.4375 1471.6914 L 1073.4141 1471.2109 L 1065.5234 1471.2109 L 1065.5234 1471.7129 L 1065.5234 1473.3066 L 1065.5234 1475.0723 L 1065.5234 1475.0801 C 1065.5499 1476.7385 1065.3633 1477.8506 1065.1172 1478.3047 L 1065.1094 1478.3125 L 1065.1016 1478.3203 C 1064.7576 1479.0083 1064.2832 1479.2949 1063.4043 1479.2949 C 1062.6925 1479.2949 1062.2724 1479.0606 1061.9277 1478.5039 C 1061.583 1477.9471 1061.3672 1477.007 1061.3672 1475.6914 L 1061.3672 1467.4473 L 1073.4375 1467.4473 L 1073.4375 1455.2656 C 1073.4375 1452.1303 1072.5625 1449.5738 1070.8008 1447.6992 C 1069.0379 1445.7986 1066.6218 1444.8438 1063.6777 1444.8438 L 1063.6777 1444.8418 z M 1089.1094 1444.8418 C 1085.8312 1444.8418 1083.2739 1445.7222 1081.5645 1447.5293 C 1079.855 1449.3364 1079.041 1452.0058 1079.041 1455.457 C 1079.041 1459.6193 1080.6299 1463.3735 1083.75 1466.627 L 1086.4082 1469.4023 C 1087.9309 1471.003 1088.905 1472.1519 1089.2715 1472.7246 C 1089.9774 1473.82 1090.3281 1475.0016 1090.3281 1476.3184 C 1090.3281 1477.3989 1090.109 1478.1404 1089.7598 1478.5859 C 1089.4105 1479.0315 1088.927 1479.2578 1088.1348 1479.2578 C 1087.3572 1479.2578 1086.8773 1479.0369 1086.5332 1478.5918 C 1086.1893 1478.1465 1085.9785 1477.3998 1085.9785 1476.3184 C 1085.9785 1475.9895 1086.0169 1475.6004 1086.0898 1475.1523 L 1086.1934 1474.5332 L 1078.3906 1475.0273 L 1078.3379 1475.4336 C 1078.2835 1475.8416 1078.2578 1476.2143 1078.2578 1476.5547 C 1078.2578 1478.6183 1078.619 1480.3554 1079.373 1481.752 C 1081.1418 1484.9901 1084.1268 1486.6602 1088.0898 1486.6602 C 1091.4901 1486.6602 1094.1987 1485.4114 1096.0332 1482.9473 C 1097.5068 1480.9825 1098.2402 1478.61 1098.2402 1475.8906 C 1098.2402 1473.7659 1097.8098 1471.8636 1096.9336 1470.2207 C 1095.9395 1468.3668 1094.3984 1466.3591 1092.3203 1464.1758 L 1089.5449 1461.2812 C 1088.2954 1459.9808 1087.5316 1458.8733 1087.2344 1458.0273 C 1086.9694 1457.2807 1086.8359 1456.4355 1086.8359 1455.4941 C 1086.8359 1454.2954 1087.0317 1453.4456 1087.3379 1452.9473 C 1087.644 1452.4489 1088.0041 1452.2461 1088.6367 1452.2461 C 1089.1777 1452.2461 1089.5183 1452.3986 1089.7949 1452.7188 C 1090.0716 1453.0389 1090.2865 1453.5835 1090.3711 1454.3809 L 1090.3711 1454.3867 L 1090.3711 1454.3945 C 1090.4172 1454.7177 1090.4453 1455.2119 1090.4453 1455.8496 L 1090.4453 1456.3809 L 1097.6562 1455.916 L 1097.627 1455.9238 L 1098.1211 1455.9238 L 1098.1211 1455.4219 C 1098.1211 1454.5327 1098.0958 1453.8208 1098.041 1453.2734 C 1097.8252 1450.4937 1096.8162 1448.281 1095.0137 1446.7559 C 1093.4807 1445.4738 1091.4862 1444.8438 1089.1074 1444.8438 L 1089.1094 1444.8418 z M 785.64062 1445.3887 L 785.64062 1477.0566 C 785.64062 1480.5295 785.96196 1482.8662 786.8125 1484.2031 C 787.25459 1484.9359 787.91306 1485.5329 788.75586 1485.9824 L 788.76172 1485.9824 C 789.62742 1486.4292 790.50484 1486.6602 791.375 1486.6602 C 793.26696 1486.6602 795.38854 1485.1379 797.67969 1482.9551 L 798.21875 1486.1152 L 805.4668 1486.1152 L 805.4668 1485.6133 L 805.4668 1445.3887 L 797.55469 1445.3887 L 797.55469 1477.8691 C 796.42684 1478.7695 795.46955 1479.2578 794.88867 1479.2578 C 794.41147 1479.2578 794.16507 1479.1161 793.9375 1478.748 C 793.70997 1478.3799 793.55273 1477.7212 793.55273 1476.7832 L 793.55273 1445.3887 L 785.64062 1445.3887 z M 879.66992 1445.3887 L 886.47656 1486.1152 L 893.88867 1486.1152 L 900.73828 1445.3887 L 900.14062 1445.3887 L 893.03125 1445.3887 L 890.18164 1465.2617 L 887.33203 1445.3887 L 879.66992 1445.3887 z M 915.18359 1452.2461 C 915.92427 1452.2461 916.36549 1452.4713 916.70508 1452.9551 C 917.04486 1453.4388 917.25977 1454.2545 917.25977 1455.4199 L 917.25977 1476.082 C 917.25977 1477.2474 917.04482 1478.0651 916.70508 1478.5488 C 916.36568 1479.0325 915.92427 1479.2578 915.18359 1479.2578 C 914.44288 1479.2578 913.99588 1479.0326 913.65625 1478.5488 C 913.31647 1478.0651 913.10352 1477.2474 913.10352 1476.082 L 913.10352 1455.4199 C 913.10352 1454.2545 913.31655 1453.4388 913.65625 1452.9551 C 913.99603 1452.4714 914.44288 1452.2461 915.18359 1452.2461 z M 992.19336 1452.2461 C 992.93403 1452.2461 993.38107 1452.4713 993.7207 1452.9551 C 994.06048 1453.4388 994.27344 1454.2545 994.27344 1455.4199 L 994.27344 1476.082 C 994.27344 1477.2474 994.06041 1478.0651 993.7207 1478.5488 C 993.38092 1479.0325 992.93403 1479.2578 992.19336 1479.2578 C 991.45265 1479.2578 991.0115 1479.0326 990.67188 1478.5488 C 990.3321 1478.0651 990.11719 1477.2474 990.11719 1476.082 L 990.11719 1455.4199 C 990.11719 1454.2545 990.33217 1453.4388 990.67188 1452.9551 C 991.01165 1452.4714 991.45265 1452.2461 992.19336 1452.2461 z M 1063.4434 1452.2461 C 1064.208 1452.2461 1064.6795 1452.4425 1065 1452.8066 C 1065.3205 1453.171 1065.5234 1453.7725 1065.5234 1454.6758 L 1065.5234 1460.8984 L 1061.3672 1460.8984 L 1061.3672 1454.6758 C 1061.3672 1453.7725 1061.5642 1453.1708 1061.8848 1452.8066 C 1062.2053 1452.4427 1062.6787 1452.2461 1063.4434 1452.2461 z M 867.04688 1466.6348 L 867.04688 1477.3887 C 866.18715 1478.635 865.38472 1479.2207 864.65625 1479.2207 C 864.08777 1479.2207 863.76086 1479.012 863.45898 1478.4297 C 863.157 1477.8475 862.96484 1476.863 862.96484 1475.5 C 862.96484 1473.4134 863.27224 1471.7197 863.85742 1470.4277 L 863.86523 1470.4277 C 864.40941 1469.2034 865.68073 1467.9222 867.04688 1466.6348 z M 1039.2148 1466.6348 L 1039.2148 1477.3887 C 1038.3552 1478.635 1037.5527 1479.2207 1036.8242 1479.2207 C 1036.2558 1479.2207 1035.9288 1479.012 1035.627 1478.4297 C 1035.325 1477.8475 1035.1328 1476.863 1035.1328 1475.5 C 1035.1328 1473.4134 1035.4402 1471.7197 1036.0254 1470.4277 L 1036.0332 1470.4277 C 1036.5774 1469.2034 1037.8487 1467.9222 1039.2148 1466.6348 z "
     style="color:#000000;font-style:normal;font-variant:normal;font-weight:normal;font-stretch:normal;font-size:21.1667px;line-height:1.25;font-family:AlternateGotNo1D;-inkscape-font-specification:AlternateGotNo1D;font-variant-ligatures:normal;font-variant-position:normal;font-variant-caps:normal;font-variant-numeric:normal;font-variant-alternates:normal;font-variant-east-asian:normal;font-feature-settings:normal;font-variation-settings:normal;text-indent:0;text-align:start;text-decoration:none;text-decoration-line:none;text-decoration-style:solid;text-decoration-color:#000000;letter-spacing:0.330729px;word-spacing:normal;text-transform:none;writing-mode:lr-tb;direction:ltr;text-orientation:mixed;dominant-baseline:auto;baseline-shift:baseline;text-anchor:start;white-space:normal;shape-padding:0;shape-margin:0;inline-size:0;clip-rule:nonzero;display:inline;overflow:visible;visibility:visible;isolation:auto;mix-blend-mode:normal;color-interpolation:sRGB;color-interpolation-filters:linearRGB;solid-color:#000000;solid-opacity:1;vector-effect:none;fill:#012d5c;fill-opacity:1;fill-rule:nonzero;stroke:none;stroke-width:0.999999;stroke-linecap:butt;stroke-linejoin:miter;stroke-miterlimit:4;stroke-dasharray:none;stroke-dashoffset:0;stroke-opacity:1;color-rendering:auto;image-rendering:auto;shape-rendering:auto;text-rendering:auto;enable-background:accumulate;stop-color:#000000"
     id="path618" />
</svg>
