<?xml version="1.0" encoding="UTF-8" standalone="no"?>
<svg
   xmlns:dc="http://purl.org/dc/elements/1.1/"
   xmlns:cc="http://creativecommons.org/ns#"
   xmlns:rdf="http://www.w3.org/1999/02/22-rdf-syntax-ns#"
   xmlns:svg="http://www.w3.org/2000/svg"
   xmlns="http://www.w3.org/2000/svg"
   xmlns:xlink="http://www.w3.org/1999/xlink"
   id="svg8"
   version="1.1"
   viewBox="0 0 4.2333332 4.2333335"
   height="16"
   width="16">
  <defs
     id="defs2">
    <linearGradient
       id="linearGradient1113">
      <stop
         id="stop1109"
         offset="0"
         style="stop-color:#005c9c;stop-opacity:1;" />
      <stop
         id="stop1111"
         offset="1"
         style="stop-color:#001345;stop-opacity:1" />
    </linearGradient>
    <radialGradient
       gradientTransform="matrix(-2.0316155e-8,1.25,-1.25,-1.6790209e-8,11.576332,-1.14592)"
       gradientUnits="userSpaceOnUse"
       r="8"
       fy="4.4610653"
       fx="5.7167358"
       cy="4.4610653"
       cx="5.7167358"
       id="radialGradient1117"
       xlink:href="#linearGradient1113" />
  </defs>
  <metadata
     id="metadata5">
    <rdf:RDF>
      <cc:Work
         rdf:about="">
        <dc:format>image/svg+xml</dc:format>
        <dc:type
           rdf:resource="http://purl.org/dc/dcmitype/StillImage" />
        <dc:title></dc:title>
      </cc:Work>
    </rdf:RDF>
  </metadata>
  <g
     id="layer1">
    <path
       transform="scale(0.26458333)"
       d="M 6.7539062,0 C 6.336126,0 6,0.3361257 6,0.75390625 6,1.1716868 6.336126,1.5078125 6.7539062,1.5078125 H 7 v 1.59375 C 6.254793,3.2535304 5.5540739,3.5734966 4.9511719,4.0371094 L 3.6464844,2.7324219 3.8203125,2.5585938 c 0.2954155,-0.2954155 0.2954151,-0.7709912 0,-1.0664063 -0.2954154,-0.2954154 -0.7709908,-0.2954154 -1.0664063,0 L 0.9921875,3.2539062 c -0.29541546,0.2954155 -0.2954154,0.7709909 0,1.0664063 0.2954153,0.2954153 0.7709908,0.2954154 1.0664063,0 L 2.2324219,4.1464844 3.640625,5.5546875 C 3.3872555,6.0056729 3.2054043,6.4932448 3.1015625,7 h -1.59375 V 6.7539062 C 1.5078125,6.3361263 1.1716868,6 0.75390625,6 0.33612574,6 0,6.336126 0,6.7539062 V 9.2460938 C 0,9.6638744 0.33612574,10 0.75390625,10 1.1716868,10 1.5078125,9.6638744 1.5078125,9.2460938 V 9 h 1.59375 c 0.1038418,0.506755 0.285693,0.9943273 0.5390625,1.445312 L 2.2324219,11.853516 2.0585938,11.679688 c -0.2954151,-0.295416 -0.770991,-0.295416 -1.0664063,0 -0.29541527,0.295415 -0.29541554,0.77099 0,1.066406 l 1.7617187,1.761718 c 0.2954153,0.295416 0.7709908,0.295416 1.0664063,0 0.295415,-0.295415 0.2954155,-0.77099 0,-1.066406 L 3.6464844,13.267578 4.9511719,11.962891 C 5.5540739,12.426504 6.254793,12.74647 7,12.898438 v 1.59375 H 6.7539062 C 6.336126,14.492188 6,14.828313 6,15.246094 6,15.663874 6.336126,16 6.7539062,16 H 9.2460938 C 9.663874,16 10,15.663874 10,15.246094 10,14.828313 9.6638744,14.492188 9.2460938,14.492188 H 9 v -1.59375 c 0.7452069,-0.151968 1.445926,-0.471934 2.048828,-0.935547 l 1.304688,1.304687 -0.173828,0.173828 c -0.295416,0.295416 -0.295416,0.770991 0,1.066406 0.295415,0.295416 0.77099,0.295416 1.066406,0 l 1.761718,-1.761718 c 0.295416,-0.295416 0.295416,-0.770991 0,-1.066406 -0.295415,-0.295416 -0.77099,-0.295416 -1.066406,0 l -0.173828,0.173828 -1.408203,-1.408204 C 12.612745,9.9943273 12.794596,9.506755 12.898438,9 h 1.59375 V 9.2460938 C 14.492187,9.663874 14.828313,10 15.246094,10 15.663874,10 16,9.6638744 16,9.2460938 V 6.7539062 C 16,6.3361263 15.663874,6 15.246094,6 14.828314,6 14.492188,6.336126 14.492188,6.7539062 V 7 h -1.59375 C 12.794596,6.4932448 12.612745,6.0056728 12.359375,5.5546875 l 1.408203,-1.4082031 0.173828,0.1738281 c 0.295415,0.295415 0.770991,0.2954155 1.066406,0 0.295416,-0.295415 0.295416,-0.770991 0,-1.0664063 L 13.246094,1.4921875 c -0.295416,-0.2954153 -0.770991,-0.2954153 -1.066406,0 -0.295416,0.2954153 -0.295416,0.7709907 0,1.0664063 l 0.173828,0.1738281 -1.304688,1.3046875 C 10.445926,3.5734966 9.7452069,3.2535304 9,3.1015625 v -1.59375 H 9.2460938 C 9.663874,1.5078125 10,1.1716868 10,0.75390625 10,0.3361257 9.6638744,0 9.2460938,0 Z"
       style="fill:url(#radialGradient1117);stroke-width:2;fill-opacity:1"
       id="path12" />
  </g>
</svg>
